<svg height="1000" width="552.2" xmlns="http://www.w3.org/2000/svg"><path d="m0.5 290.5q0-39 27.8-66.9t66.9-27.8q38.6 0 66.2 27.8t27.6 66.9t-27.6 66.9t-66.2 27.9t-66.6-27.9t-28.1-66.9z m45.9 0q0 20 14.6 34.7t34.2 14.6q20 0 34.7-14.6t14.6-34.7t-14.6-34.6t-34.7-14.7q-20.5 0-34.7 14.4t-14.1 34.9z m202.6 230.5q0 60.1 33.2 106.9q17.1 24.4 48.1 38.8t70.6 14.5q113.7 0 142.6-87q2.9-11.2-3.2-21.2t-17.4-12q-11.2-2.9-20.9 3.5t-12.3 17.5q0 0.5-0.7 2.7l-1.2 3.7q-8.8 14.6-23.4 23.4q-24.5 14.7-63.5 14.7q-24.9 0-44-8.3q-31.2-13.2-44.4-46.4q-8.8-21.5-8.8-50.8v-168q0-11.7 1.5-23.4q2.9-29.8 23.4-54.2q23-27.4 72.3-27.4q40 0 63.5 14.2q15.6 9.3 23.4 23.4q0.5 1.5 1.2 4.2t0.7 3.2q3 10.7 12.3 15.8t20.9 2.7q11.3-2.4 17.4-11.9t3.2-20.8v-0.5l-4.4-12.2q-3.9-8.8-14.4-22.4t-23.7-23q-37.6-27.3-100.1-27.3q-39.6 0-70.3 13.9t-47.9 37.8q-33.7 46.4-33.7 107.9v168z"/></svg>