<svg height="1000" width="1160.6" xmlns="http://www.w3.org/2000/svg"><path d="m1.5 635.3q0-77.7 48.5-138t124.3-77.4q20-91.8 92.5-150.1t167.3-58.4q92.3 0 164.8 56.9t94 145.8h14.1q91.8 0 157 64.7t65.2 156.5q0 60-29.8 111.3t-81 81t-111.4 29.8h-483.4q-44.9 0-86.1-17.6t-71.1-47.3t-47.4-71.1t-17.5-86.1z m76.1 0q0 59.5 42.8 102.2t103.2 42.8h483.4q60.6 0 103.8-42.8t43.2-102.2t-43.2-102.1t-103.8-42.5h-71.7q-7.9 0-7.9-7.8l-3.4-25.4q-7.8-73.7-62-122.3t-127.9-48.6t-127.9 48.8t-61.1 122.1l-3.4 22q0 7.8-8.3 7.8l-23.4 3.4q-56.2 4.9-94.3 46.4t-38.1 98.2z m461-454.1q-7.8 7.3 3.9 10.7q32.2 14.2 55.6 28.8q8.8 2.4 11.8-1.5q47.3-44.9 110.3-44.9q63.5 0 109.6 42.3t51.5 104.2l4.9 33.2h73.8q50.7 0 87.1 36.4t36.4 86.7q0 46.8-32 81.5t-79.3 40q-7.8 0-7.8 8.3v59.1q0 8.3 7.8 8.3q78.6-4.9 132.8-62t54.2-135.2q0-82.6-58.4-140.9t-140.8-58.4h-7.9q-20.5-78.1-85.6-128.6t-146.3-50.6q-109.8 0-181.6 82.6z"/></svg>