<svg height="1000" width="1082.5" xmlns="http://www.w3.org/2000/svg"><path d="m0 598.1q0 104 72.5 178.8t177 79.5q8.8 0 8.8-8.7v-69.4q0-9.7-8.8-9.7q-66.9-3.5-113.8-53t-46.8-117.5q0-64.4 43.9-112.3t109.4-55.6h27.3q10.3 0 10.3-9.3l2.9-29.8q8.3-84.5 71.8-141.6t148.9-57.1q84.5 0 148.2 57.1t72.5 141.6l3.9 29.8q0 9.3 9.3 9.3h84q69.3 0 120.1 50t50.8 117.9q0 67.4-47.1 117.2t-113.6 53.3q-10.2 0-10.2 9.7v69.4q0 8.7 10.2 8.7q67.9-1.9 125-37.1t90.1-94t33-127.2q0-52.2-20.5-99.6t-55.2-81.5t-82.5-54.5t-100.1-20.2h-16.6q-25.9-104.5-109.9-171.2t-191.4-66.6q-110.3 0-195.8 68.6t-109.4 175q-86.4 20.1-142.3 90.1t-55.9 159.9z m361.8 32.8q0 19.5 12.7 33.2q11.7 11.7 31.8 11.7q19 0 32.2-11.7l57.6-59.6v207q0 18.6 12.2 31.8t30.8 13.1q18 0 31.2-13.1t13.2-31.8v-205.1l58.6 57.7q31.2 23.9 63.5 0q12.7-11.8 12.7-32.3q0-18.5-12.7-32.2l-134.8-133.8q-12.7-12.7-31.2-12.7q-19.1 0-30.8 12.7l-134.3 133.8q-12.7 12.7-12.7 31.3z"/></svg>