<svg height="1000" width="1082.5" xmlns="http://www.w3.org/2000/svg"><path d="m2.9 599.6q0 51.3 19.6 97.9t52.9 80.6t79.6 54.9t97.4 23.4q8.8 0 8.8-8.7v-69.4q0-9.7-8.8-9.7q-67.8-4.9-114.5-53.8t-46.6-115.2q0-65.4 44.4-114t109.4-54l27.4-3.9q9.7 0 9.7-8.8l3.9-26.8q5.4-55.7 36.2-101.3t79.3-71.3t104.7-25.7q85.5 0 149 56.2t72.2 140.6l3.5 29.8q0 9.3 9.7 9.3h84q70.3 0 120.6 50.3t50.3 119.6q0 66.4-46.4 115.2t-114.2 53.8q-10.3 0-10.3 9.7v69.4q0 8.7 10.3 8.7q104.5-4.8 176.2-78.8t71.8-178q0-69.8-34.7-129.1t-94.2-94t-129.4-34.7h-16.6q-25.9-104-110.1-170.9t-191.7-66.9q-109.8 0-195.5 69.1t-110.1 176q-86 20-141.9 90.4t-55.9 160.1z m324.2 65.9q0 58.1 29.1 107.7t78.6 78.9t107.2 29.2q89.8 0 153.6-63.7t63.7-152.1q0-18.5-13-31.5t-31.5-12.9t-32.2 13.2t-13.7 31.2q0 52.8-37.1 90.1t-89.8 37.4q-52.3 0-89.6-37.6t-37.4-89.9q0-46.8 28.1-83.5t68.6-40l-22 20.5q-11.7 11.7-11.7 29.8q0 19.5 11.7 34.2q10.8 11.7 27.9 12.2t36.6-12.2l94.7-97.2q12.7-12.7 12.7-30.3q0-20-12.7-31.7l-94.7-95.2q-14.6-13.7-32.2-13.7q-18.1 0-31 13.2t-13 31.7t11.7 30.3l18.6 18.5q-78.1 13.2-129.6 72.8t-51.6 140.6z"/></svg>