<svg height="1000" width="1082.5" xmlns="http://www.w3.org/2000/svg"><path d="m1.5 597.7q0 104.4 72.7 179.2t177.3 79.5q9.2 0 9.2-8.7v-69.9q0-9.2-9.2-9.2q-66.9-3.5-114-53.3t-47.2-117.6q0-65 44.5-113.1t109.8-55.9l27.4-1.5q9.7 0 9.7-8.7l3.9-28.9q7.9-84.4 71.3-141.3t149.4-56.9q85 0 148.7 56.9t72.5 141.3l3.9 30.3q0 8.8 9.3 8.8h84q69.3 0 120.4 50.3t51 118.7q0 67.8-47.1 117.6t-114 53.3q-10.3 0-10.3 9.2v69.9q0 8.7 10.3 8.7q104-3.4 176.2-78.6t72.3-180.1q0-70.4-34.7-129.4t-94.2-93.1t-129.9-33.9h-16.6q-25.4-104.5-109.6-171.4t-192.2-66.9q-110.3 0-196 68.4t-110.1 175.3q-85.9 20-142.3 90.6t-56.4 160.4z m362.8 79.5q0 18.1 13.1 31.3l134.3 135.7q9.8 12.2 30.3 12.2q22 0 31.7-12.2l134.8-135.7q13.2-14.2 13.2-31.3q0-18-13-30.2t-31.5-12.2t-32.2 12.2l-58.6 57.6v-207.5q0-18.6-12.9-30.8t-31.5-12.2t-30.8 12.2t-12.2 30.8v207.5l-57.6-57.6q-13.7-12.2-32.2-12.2q-19.6 0-32.2 11.9t-12.7 30.5z"/></svg>