<svg height="1000" width="1071.3" xmlns="http://www.w3.org/2000/svg"><path d="m-112.8 813q0-19.1 13.7-32.7q13.7-12.7 31.2-12.7h281.8q57.6 0 98.4 41.2t40.7 98.9q0 58.1-40.5 98.9t-98.6 40.8t-99.2-41.1q-12.2-12.2-12.2-31.2t12-31.5t31.5-12.4q18.6 0 32.2 12.6q15.6 15.2 35.7 15.2q20.5 0 35.6-14.9t15.1-36.4q0-20.5-15.1-35.4t-35.6-14.9h-281.8q-18.5 0-31.7-13.2t-13.2-31.2z m0-158.2q0-18.6 13.7-32.2q13.7-12.7 31.2-12.7h548.9q20.5 0 35.6-15.2t15.1-36.1t-15.1-35.9t-35.6-14.9q-21.5 0-35.7 14.7q-13.7 11.7-32.7 11.7t-31-12t-12-31q0-19.5 11.7-31.7q39.6-39.6 99.7-39.6q58.1 0 98.8 40.5t40.8 98.2t-40.8 98.4t-98.8 40.8h-548.9q-18.5 0-31.7-12.5t-13.2-30.5z m111.8-123.1q0 6.4 8.3 6.4h75.2q6.4 0 11.3-7.8q17.5-42.5 54.6-70.3t83-31.3l27.4-3.9q10.2 0 10.2-8.8l3.9-26.8q8.4-84.5 71.6-141.9t149.2-57.4q86.4 0 149.9 56.9t72.2 142.4l3.9 30.7q0 8.8 9.3 8.8h84q70.8 0 121.3 49.8t50.6 119.6t-50.6 119.7t-121.3 49.8h-359.9q-9.3 0-9.3 8.8v72.2q0 8.8 9.3 8.8h359.9q70.8 0 130.6-34.6t94.7-94.5t34.9-130.2q0-70.8-34.9-130.3t-94.7-94.3t-130.6-34.6h-16.1q-24.4-104-109.2-170.4t-194-66.4q-110.4 0-195.4 68.6t-107.9 175.5q-66.9 15.6-118.6 64.2t-71.8 115v1.9q-1 2.5-1 4.4z"/></svg>