<svg height="1000" width="1071.3" xmlns="http://www.w3.org/2000/svg"><path d="m-171.9 814.5q0-19.1 13.2-31.8t32.7-12.7h467.3q18.6 0 30.8 12.5t12.2 32q0 18.5-12.5 31t-30.5 12.4h-467.3q-19.5 0-32.7-12.4t-13.2-31z m137.2-159.2q0-18.6 14.2-31.3q11.2-11.7 30.8-11.7h468.7q18.1 0 30 12.2t12 30.8t-12 31.7t-30 13.2h-468.7q-18.1 0-31.5-13.4t-13.5-31.5z m32.3-121.6q0 7.3 8.7 7.3h74.3q7.3 0 12.2-7.3q17.6-42.5 54.2-70.3t82-31.3l28.3-3.4q8.8 0 8.8-9.3l3.4-26.8q8.8-85 72.5-141.6t149.7-56.7q85 0 147.5 55.9t73.2 140.9l3.9 30.8q0 8.3 9.3 8.3h83.5q70.8 0 120.8 49.8t50.1 120.6q0 68.3-50.8 118.9t-120.1 50.5h-358.9q-9.3 0-9.3 8.8v69.8q0 9.3 9.3 9.3h358.9q52.7 0 100.8-20.3t82.5-54.9t55-82.3t20.5-99.8q0-70.3-34.5-129.7t-93.9-93.7t-130.4-34.4h-16.1q-25.4-105-109.7-171.7t-191.6-66.6q-110.8 0-196 69.1t-108.2 176.5q-67.4 15.1-118.2 63.2t-70.8 115.5v1q-0.9 1.9-0.9 3.9z m59.5 441.9q0-19.1 13.7-31.3q11.7-12.2 30.8-12.2h468.2q19.1 0 32 12.5t12.9 31t-13.1 31.7t-31.8 13.2h-468.2q-18.1 0-31.3-13.2t-13.2-31.7z"/></svg>