<svg height="1000" width="1244.1" xmlns="http://www.w3.org/2000/svg"><path d="m-0.5 599.1q0 86.4 51.3 154.3t133.8 92.8l-33.2 88.4q-3.5 10.7 7.3 10.7h110.3l-64.9 205.6h15.1l217.3-280.8q3-3.4 0.8-7.1t-7.6-3.6h-113.3l128.9-241.2q5.4-11.3-7.3-11.3h-153.3q-7.4 0-12.2 7.4l-56.2 149.9q-55.7-14.2-92.3-60.6t-36.6-104.5q0-64.9 44.4-112.8t109.9-55.6l27.3-3.5q9.8 0 9.8-9.2l3.4-26.4q8.3-84.5 71.8-141.6t148.9-57.1q84.5 0 148.2 57.1t73 141.6l3.4 30.3q0 8.8 9.3 8.8h84q70.8 0 120.9 49.3t50 119.1q0 66.4-46.4 115t-114.2 54q-10.3 0-10.3 9.2v71.3q0 8.8 10.3 8.8q104-3.4 176.2-78.6t72.3-179.7q0-58.6-22-104.5q61.1-73.7 61.1-172.8q0-73.3-36.9-136.3t-99.9-99.8t-136.7-36.9q-120.1 0-201.6 90.4q-63-33.7-140.7-33.7q-110.3 0-195.8 68.3t-109.3 174.8q-86.5 20.1-142.4 90.1t-55.9 160.4z m421.4 499q-1 11.8 7.1 23t24.1 17.1q4.9 1.4 10.3 1.4q13.2 0 26.6-7.8t17.8-24.4l119.2-446.3q4.9-18-3.4-33.4t-25.4-20.8q-18.1-5.3-34 3.5t-20.7 26.3l-120.1 447.8q-1.5 6.3-1.5 13.6z m17.1-1138.1q0 19 12.7 30.7l33.7 34.2q13.2 13.2 31.7 13.4t29.8-13.4q14.2-11.2 14.2-31.2q0-19.1-12.7-30.8l-32.8-34.2q-13.6-12.7-31.7-12.7q-19.5 0-32.2 12.7t-12.7 31.3z m199.2 979q0 9.2 5.9 19.5q9.7 15.6 25.8 22.5q5.4 2.4 15.7 2.4q11.7 0 17.1-2.9q15.6-6.4 21.4-30.3l77.7-289.1q4.9-18.5-3.9-33.7t-26.4-20.5q-18.1-5.3-33.7 3.5t-20.5 26.3l-77.1 290.5q0 2-1 5.9t-1 5.9z m79.1-749.5q52.3-50.3 128.9-50.3q76.2 0 130.4 53.2t54.2 129.4q0 48.8-26.9 96.2q-77.6-76.7-182.1-76.7h-16.1q-23.9-90.8-88.4-151.8z m84.5-273.5q0 18.6 13.2 31.8t31.2 13.1q18.6 0 30.8-13.1t12.2-31.8v-106.9q0-18.6-12.2-31.8t-30.8-13.1q-18.1 0-31.2 13.1t-13.2 31.8v106.9z m288.1 119.2q0 19 13.6 31.2q11.3 13.2 29.6 13.2t31.5-13.2l75.2-75.7q13.6-12.2 13.6-30.7t-13.1-31.8t-31.8-13.2q-17.6 0-30.3 13.7l-74.7 75.2q-13.6 12.2-13.6 31.3z m41.5 617.6q0 17.1 13.2 31.3l33.6 32.7q9.8 11.2 28.9 12.7l0.9 0.5q0.5 0 2 0.2t2.4 0.3q14.7 0 27.4-13.7q13.6-12.7 13.6-31.3q0-18-13.6-31.7l-34.2-31.7q-12.7-14.2-29.8-14.2q-18.1 0-31.2 13.2t-13.2 31.7z m76.1-331q0 18.5 13.7 31.2q14.2 14.2 32.2 14.2h106q18.1 0 31.5-13.4t13.4-32q0-18.1-13.2-30.5t-31.7-12.5h-106q-19.5 0-32.7 12.5t-13.2 30.5z"/></svg>