<svg height="1000" width="1244.1" xmlns="http://www.w3.org/2000/svg"><path d="m-0.5 598.1q0 87.4 52 156.3t134.5 91.8l-34.1 88.4q-4 11.2 7.3 11.2h110.8l-74.2 219.2h15.1l227.1-294.9q2.9-3.4 0.7-7.1t-7.5-3.6h-113.8l129.4-242.2q5.8-11.2-6.9-11.2h-154.3q-7.3 0-12.2 7.8l-55.6 149.9q-56.2-14.2-92.8-60.3t-36.6-105.3q0-65.9 43.9-113.7t109.9-55.7l26.4-1.5q9.2 0 11.7-7.3l3.9-30.7q8.3-84.5 71.5-141.9t149.2-57.4q84.9 0 149.2 57.4t73 141.9l3.9 30.7q0 8.8 8.7 8.8h84.5q69.8 0 120.1 50.1t50.3 119.3q0 67.9-46.6 118t-113.5 53.4q-10.3 0-10.3 9.3v69.8q0 8.8 10.3 8.8q68.8-1.9 126.2-37.3t90.6-94.3t33.2-127.7q0-57.1-22.5-104.9q59.6-75.2 59.6-171.4q0-74.2-36.9-137.5t-100.1-100.1t-137.4-36.8q-56.2 0-109.4 23.4t-91.8 64.9q-63-33.6-141.1-33.6q-110.9 0-196.6 68.6t-109.6 175.5q-86.4 20-142.8 90.8t-56.4 161.1z m426.3 516.6q0 11.8 8.3 24.5t23.9 17.5q8.8 2 13.2 2q11.7 0 20-3.9q16.1-6.4 22-29.8l14.6-53.7q4.9-19.5-4.4-34.9t-27.8-19.3q-16.1-5.4-32.2 3.9t-22 26.9l-13.2 54.2q-2.4 10.7-2.4 12.6z m12.2-1156.7q0 18.6 12.7 31.3l34.2 34.1q12.2 12.2 28.3 13.7q16.1 2.5 32-11.7t15.8-33.2q0-18.1-13.1-31.3l-32.8-34.1q-12.7-12.7-31.2-12.7q-19.5 0-32.7 12.7t-13.2 31.2z m57.6 906.7q-0.5 12.7 7.3 24.7t24.9 16.9q16.6 5.3 32.5-3.2t21.7-29.1l15.7-53.7q5.3-17.1-4.2-32.9t-28.1-21.3q-17.5-5.4-33.4 3.7t-21.3 27.6l-13.1 54.7q-2 8.7-2 12.6z m147.5 87.4q0 11.3 5.3 20.6q10.3 16.6 28.4 22.4q8.7 2.9 14.6 2.9q9.8 0 16.1-3.9q15.6-5.8 23.5-31.2l12.7-52.7q5.3-18.6-3.2-34t-26.1-20.2q-18.1-5.4-34 3.4t-21.2 26.3l-14.7 54.2q-1.4 6.9-1.4 12.2z m71.3-250.9q0 13.6 8.5 26.1t25.6 17.3q13.2 4.4 31.8-2.4q15.1-6.4 21.9-29.8l14.7-52.2q4.9-19.6-4.2-35t-27.5-19.2q-17.6-5.4-33.2 3.1t-21 26.2l-15.2 55.1q-1.4 10.3-1.4 10.8z m5.3-512.7q52.3-50.3 127.5-50.3q76.6 0 130.6 53.5t53.9 130.1q0 51.2-24.4 94.2q-75.2-75.2-183.1-75.2h-16.1q-22.9-92.8-88.4-152.3z m82.5-274.4q0 18.5 13.2 31.7t31.8 13.2t31-13t12.4-31.9v-107.5q0-19-12.4-31.9t-31-13t-31.8 13.2t-13.2 31.7v107.5z m291.1 119.1q0 19 12.2 31.3q10.7 12.2 28.5 13.4t33-13.4l75.2-75.2q13.2-12.2 13.2-31.3t-13.2-31.2q-12.7-13.7-31.3-13.7q-18 0-30.2 13.7l-75.2 75.2q-12.2 12.2-12.2 31.2z m40.5 620.6q0 18.1 13.2 31.3l33.7 32.7q14.1 13.2 31.7 13.2l1.5 0.9q17.1 0 28.3-14.1q13.2-12.7 13.2-31.3t-13.2-31.7l-32.2-32.2q-14.2-14.2-31.8-14.2q-18.5 0-31.5 13.4t-12.9 32z m76.2-332q0 19 13.6 30.7q12.2 13.7 31.3 13.7h107.4q18.6 0 31.7-12.9t13.2-31.5t-12.9-31t-32-12.5h-107.4q-19.1 0-32 12.5t-12.9 31z"/></svg>