<svg height="1000" width="1244.1" xmlns="http://www.w3.org/2000/svg"><path d="m-123.5 811q0 18.6 13.1 31.8q34.2 14.1 45.5 14.1h410.1q18.6 0 31.8-13.4t13.1-32q0-18-13.1-30.5t-31.8-12.4h-410.1q-20.5 0-39.6 12.4t-19 30z m72.7-156.2q0 18.5 13.2 30.7q11.7 13.7 30.3 13.7h490.2q18.6 0 31.5-12.9t12.9-31.5t-12.9-31.8t-31.5-13.1h-490.2q-18.1 0-30.8 13.1t-12.7 31.8z m54.7-123.5q0 6.8 8.8 6.8h72.7q9.3 0 11.3-6.8q20-41.6 56.4-68.7t82.3-32.4h28.8q8.3 0 8.3-9.8l3.9-29.3q7.8-84.5 71.3-141.6t149.4-57.1q84.9 0 148.7 57.1t72.5 141.6l3.9 29.3q0 9.8 8.8 9.8h83.9q69.4 0 119.7 49.8t50.3 118.1q0 70.4-50.1 120.4t-119.9 50.1h-358.8q-9.3 0-9.3 9.7v69.4q0 9.2 9.3 9.2h358.8q70.4 0 129.9-34.6t94.3-94.3t34.6-129.9q0-55.6-22.9-104.4q61-75.7 61-170.9q0-73.3-37.1-136.3t-100.3-99.8t-137-36.9q-57.1 0-109.1 23.2t-90.6 65.2q-64.5-33.7-140.6-33.7q-110.4 0-195.8 68.4t-108.9 174.8q-66.4 16.6-117 65.1t-70.5 115q-1 1-1 3.5z m37.6 445.8q0 19 13.2 30.7q12.7 13.2 30.7 13.2h490.3q18.1 0 31-12.9t12.9-31q0-19.6-12.7-32.5t-31.2-13h-490.3q-18.5 0-31.2 13t-12.7 32.5z m389.2-1016.2q0 19.1 13.1 31.3l32.8 34.2q12.7 12.7 31.2 12.7q20 0 32.7-12.5t12.7-32q0-17.5-13.2-30.7l-33.2-33.7q-13.1-13.2-30.2-13.2q-19.6 0-32.8 12.9t-13.1 31z m279.7 228.1q51.8-49.4 127-49.4q76.2 0 129.6 53.5t53.5 129.7q0 52.2-23.9 94.2q-73.7-74.2-181.7-74.2h-15.6q-22.4-89.9-88.9-153.8z m83.1-272q0 18.5 12.9 30.8t31 12.2q19.5 0 31.7-12.2t12.2-30.8v-106.5q0-19-12.4-31.9t-31.5-13q-18.1 0-31 13.2t-12.9 31.7v106.5z m288 119.1q0 19.1 12.7 31.3q9.8 12.7 31.3 12.7q21 0 30.8-12.7l76.6-75.2q12.7-11.7 12.7-32.2q0-18.1-13.2-31t-31.7-13t-31.8 12.2l-74.7 77.2q-12.7 12.2-12.7 30.7z m41.1 617.7q0 18.6 12.7 31.3l33.6 32.7q19.1 14.1 31.8 14.1q13.2 0 32.2-14.1q12.7-12.7 12.7-31.3q0-18-12.7-31.7l-33.7-31.8q-14.6-13.6-33.7-13.6q-18.5 0-30.7 12.7t-12.2 31.7z m75.6-329.1q0 19.5 13.7 31.7q14.2 13.2 31.3 13.2h105.9q17.6 0 30.8-13.2t13.2-31.7q0-17.6-13-29.5t-31-12h-105.9q-19.1 0-32 12t-13 29.5z"/></svg>