<svg height="1000" width="1244.1" xmlns="http://www.w3.org/2000/svg"><path d="m0.5 601.6q0 103.5 71.3 177.2t175.8 78.6q9.2 0 9.2-8.8v-69.3q0-9.3-9.2-9.3q-66.9-3.4-112.8-52t-45.9-116.4q0-66 43.9-114.3t109.4-53.7l27.3-3.9q8.3 0 8.3-7.3l3.9-28.8q9.8-85.5 72.1-141.6t147.7-56.2t149.1 56.2t72.1 140.1l3.4 30.3q1.9 8.8 11.2 8.8h83.5q69.3 0 119.1 50t49.8 120.4q0 67.8-45.9 116.4t-112.7 52q-10.3 0-10.3 9.3v69.3q0 8.8 10.3 8.8q104-3.4 175.2-77.6t71.3-178.2q0-52.8-20-104.5q60.6-75.2 60.6-174.3q0-55.2-21.5-105.8t-58.1-87.1t-87.2-58.4t-106.2-21.7q-120.1 0-201.2 90.8q-69.8-34.2-142.5-34.2q-110.4 0-194.6 68.4t-108.2 175.8q-87.9 20-143 90.1t-55.2 160.9z m279.3 366.2q0 13.2 8.3 26.3t24.4 18.1q18.1 5.4 33.4-1.9t20.8-29.3l7.3-31.8q3.9-17.6-4.9-32.9t-26.8-20.8q-17.6-5.4-33.5 3.9t-20.7 27.8l-7.3 30.8q-1 2.9-1 9.8z m39.5-150.9q0 17.1 12.7 29.8q12.2 13.2 29.8 13.2q18.6 0 31.3-12.5t12.7-30.5t-12.7-30.5t-31.3-12.5q-18 0-30.3 12.2t-12.2 30.8z m31.8-118.7q-1 12.2 6.8 23.7t24.9 16.9q16.1 4.9 32.5-3.7t21.7-26.6l14.7-46.9q5.8-19-3.7-33.9t-28.6-20.3q-17.1-5.3-32.7 3.4t-21 25.9l-13.2 47.9q-1.4 13.2-1.4 13.6z m60 432.2q0 13.2 8.3 25.6t25.4 17.3q6.9 1.5 12.7 1.5q33.7 0 41.5-31.7l7.3-30.8q4.9-19.5-4.3-35.4t-27.9-19.3q-16.6-5.4-32.4 3.7t-21.3 26.6l-7.3 30.8q-2 8.7-2 11.7z m29.3-1169q0 18.6 12.7 31.3l34.2 33.2q10.7 12.2 28.1 13.4t32.5-13.4q13.1-13.2 13.1-30.8q0-18-13.1-31.2l-32.8-33.7q-12.2-12.2-30.7-13.7q-18.1 0-31 13.2t-13 31.7z m11.7 1017.6q0 17.6 12.7 30.3t30.3 12.7q18.6 0 30.8-12.2t12.2-30.8q0-18.1-12.2-30.3t-30.8-12.2t-30.7 12.2t-12.3 30.3z m32.3-118.2q-1 11.8 7.1 24.5t23.6 15.6q18.1 4.9 33.2-3t21.5-29.2l13.7-46.9q5.4-17.1-3.7-32.7t-27.6-21q-17-5.4-33.2 4.1t-21.4 27.6l-11.8 46.9q-1.4 6.8-1.4 14.1z m144 111.9q0 13.1 7.8 25.1t24 16.8q2.4 0 7.3 1t7.3 1q31.7 0 39.6-34.2l7.3-31.2q5.4-16.6-3.7-32.7t-26.6-21.5q-19-4.9-34.9 4.1t-21.2 27.6l-5.4 30.8q0 0.9-0.7 5.8t-0.8 7.4z m38.6-153.9q0 18.1 12.7 29.8q11.7 12.7 30.3 12.7t30.7-12.2t12.2-30.3q0-18.5-12.2-30.7t-30.7-12.2t-30.8 12.2t-12.2 30.7z m31.7-120.6q0 13.2 8.6 25.2t25.6 16.8q1.5 0 6.1 1t7.1 1q8.3 0 19-4.9q16.2-8.3 21-27.3l13.2-46.9q4.9-17.6-3.9-33t-26.4-20.7q-18-5.4-33.4 2.9t-20.8 26.4l-14.6 47.3q0 1.5-0.7 5.7t-0.8 6.5z m18.6-505.8q51.7-51.8 127.9-51.8q77.2 0 131.4 53t54.2 129.2q0 51.7-27.9 97.6q-76.6-76.6-182.1-76.6h-16.1q-22-86-87.4-151.4z m85.9-274.4q0 18 12 30t30 12q19.1 0 32.2-12t13.2-30v-107.5q0-18-13.4-31.2t-32-13.2q-18.1 0-30 13t-12 31.4v107.5z m287.1 118.1q0 19.6 11.8 31.3q27.8 27.8 62.9 0l74.7-74.7q13.2-13.2 13.2-32.7q0-18.6-12.9-31.5t-31.5-13q-18.1 0-31.7 12.7l-74.7 77.2q-11.8 11.2-11.8 30.7z m41 617.2q0 18.6 13.7 30.8l31.8 32.7q15.6 12.7 31.7 12.7q15.6 0 31.2-12.7q13.2-12.2 13.2-30.8q0-17.5-13.2-32.2l-33.6-31.7q-11.8-13.2-29.8-13.2t-31.3 13.2q-13.7 12.7-13.7 31.2z m76.7-330.5q0 18.5 13.7 30.7q14.1 14.2 32.2 14.2h105.5q18 0 30.5-13.2t12.4-31.7t-12.4-31.5t-30.5-13h-105.5q-18.5 0-32.2 13.2t-13.7 31.3z"/></svg>