<svg height="1000" width="1244.1" xmlns="http://www.w3.org/2000/svg"><path d="m-140.1 813q0 18.5 14.1 31.2q13.2 13.2 31.8 13.2h306.1q20 0 35.4 14.7t15.4 35.6t-15.4 36.1t-35.4 15.2t-35.6-15.6q-14.2-12.7-31.8-12.7q-18.5 0-31.2 12.4t-12.7 31t12.7 31.3q41.5 41.5 98.6 41.5q57.6 0 98.2-40.8t40.5-98.4t-40.5-98.6t-98.2-41h-306.1q-18.6 0-32.3 13.4t-13.6 31.5z m0-156.7q0 17 14.1 29.7q13.2 13.2 31.8 13.2h571.3q57.6 0 98.3-40.8t40.8-98.3t-40.5-97.7t-98.6-40q-59.1 0-98.2 39.5q-12.2 12.7-12.2 31.8t12 31t31 11.9q18.5 0 32.2-12.2q14.6-14.6 35.2-14.6t35.4 14.6t14.8 35.7t-14.8 36.1t-35.4 15.1h-571.3q-18.6 0-32.3 13.5t-13.6 31.5z m138.6-122.6q0 6.3 8.3 6.3h74.7q5.9 0 10.8-7.3q17.6-42.5 54.4-70.1t82.8-31l27.3-3.9q9.8 0 9.8-8.8l3.4-26.8q8.3-84.5 71.3-141.1t148.4-56.7q86 0 149.2 56.4t72 141.4l3.5 30.3q0 9.2 9.2 9.2h85q70.3 0 119.9 49.1t49.5 118.4q0 69.8-49.5 119.4t-119.9 49.6h-359.4q-9.3 0-9.3 9.2v71.3q0 8.8 9.3 8.8h359.4q69.8 0 129.1-34.6t93.8-94.3t34.4-129.4q0-57.6-22-105.4q59.1-77.7 59.1-172.4q0-73.3-36.6-136.2t-99.6-99.9t-136.2-36.9q-121.1 0-201.7 90.4q-62.5-31.8-139.2-31.8q-109.8 0-194.3 68.1t-107.4 174.1q-66.4 15.6-117.4 64t-71.1 114.2v2q-1 1.5-1 4.4z m425.8-574.2q0 18.5 13.7 31.2l31.7 33.7q12.7 12.7 31.8 12.7q19.5 0 31.9-12t12.5-31.4q0-18.6-11.7-31.3l-34.2-33.7q-12.2-13.7-30.8-13.7t-31.7 13t-13.2 31.5z m277.4 229.5q56.1-53.3 128.9-53.3q75.7 0 130.3 54.7t54.7 130.9q0 50.8-26.8 95.2q-74.7-74.7-180.2-74.7h-17.1q-18.6-84.5-89.8-152.8z m83.9-273q0 18.1 13.2 30.5t31.8 12.5t31.5-12.5t12.9-30.5v-106.4q0-18.6-12.9-31.8t-31.5-13.2t-31.8 13.2t-13.2 31.8v106.4z m289.1 118.2q0 19 11.7 31.2q13.2 13.2 31.8 13.5t29.7-13.5l76.2-74.7q13.2-13.2 13.2-31.7q0-18.1-13.2-31.3t-31.7-13.1t-31.3 12.6l-74.7 76.7q-11.7 12.2-11.7 30.3z m40 616.2q0 18.1 13.2 31.2l33.2 33.7q15.7 12.7 32.7 12.7q14.7 0 30.3-12.7q13.2-13.2 13.2-31.2q0-17.1-13.2-31.8l-33.2-33.6q-12.7-12.7-30.3-12.7q-19.5 0-32.7 12.9t-13.2 31.5z m79.1-329.1q0 19 12.7 30.8q11.8 13.6 30.3 13.6h105.5q18.1 0 31.2-13.2t13.2-31.2q0-18.6-13.2-31.7t-31.2-13.2h-105.5q-18.5 0-30.7 13.2t-12.3 31.7z"/></svg>