<svg height="1000" width="1244.1" xmlns="http://www.w3.org/2000/svg"><path d="m0.5 600.6q0 67.4 33.2 125.5t90.6 93.2t125.2 37.1q8.8 0 8.8-8.7v-69.4q0-9.7-8.8-9.7q-66.4-3.5-113.5-53t-47.1-115q0-64.5 44.2-112.3t109.1-55.7l27.3-2.9q9.3 0 9.3-9.8l3.9-26.3q8.3-85.5 71.3-142.4t148.4-56.9q85 0 148.5 56.9t71.8 140.9l3.9 30.3q0 8.8 8.8 8.8h83.9q70.3 0 120.2 50t49.8 119.4q0 65.4-47.2 115t-113 53q-9.8 0-9.8 9.7v69.4q0 8.7 9.8 8.7q103.5-3.4 175.8-78.1t72.2-177.7q0-59.1-22.4-106q61.5-73.7 61.5-171.8q0-73.3-36.6-136t-99.6-99.4t-136.2-36.6q-120.2 0-201.7 90.3q-63.5-34.2-139.7-34.2q-109.8 0-195 68.1t-109.2 174.1q-87.4 21.5-142.5 91.3t-55.2 160.2z m330.6 210.9q0 18.6 12.4 31.8t30.5 13.1t30.5-13.1t12.5-31.8q0-17.6-12.5-30.2t-30.5-12.7t-30.5 12.7t-12.4 30.2z m0 189q0 16.1 12.7 29.8q13.6 12.7 30.2 12.7q18.6 0 30.8-12.2t12.2-30.3q0-18.6-12.2-30.8t-30.8-12.2t-30.7 12.2t-12.2 30.8z m106.4-1038.1q0 19 12.7 30.8l34.2 34.1q12.7 12.7 27.8 13.2q16.1 2.5 31.7-11.4t15.7-33t-12.7-33.2l-32.7-31.7q-11.8-13.2-30.8-13.2q-19.5 0-32.7 12.9t-13.2 31.5z m59.1 949.2q0 17.6 12.7 31.3q12.7 12.7 30.3 12.7q18.5 0 31.7-12.7t13.2-31.3q0-18-13.2-31t-31.7-12.9q-17.6 0-30.3 12.9t-12.7 31z m0-187.5q0 17.6 12.7 30.3t30.3 12.7q18.5 0 31.7-12.5t13.2-30.5t-13.2-30.7t-31.7-12.7q-17.6 0-30.3 12.7t-12.7 30.7z m0 378q0 17 12.7 29.7q13.2 13.2 30.3 13.2q18.5 0 31.7-12.2t13.2-30.7q0-18.1-13.2-31.3t-31.7-13.2q-17.1 0-30.1 13.2t-12.9 31.3z m168-290.6q0 18.6 12.6 31.8t30.8 13.1t30.5-13.1t12.5-31.8q0-17.6-12.5-30.2t-30.5-12.7t-30.8 12.7t-12.6 30.2z m0 189q0 16.6 12.2 29.8q13.6 12.7 31.2 12.7q18.6 0 30.8-12.2t12.2-30.3q0-18.6-12.2-30.8t-30.8-12.2t-31 12.5t-12.4 30.5z m50.7-810.1q53.7-51.7 128.5-51.7q75.6 0 129.3 54.2t53.8 129.9q0 48.8-26.4 95.7q-74.7-74.7-181.2-74.7h-16.1q-22.9-90.9-87.9-153.4z m84-271.5q0 18.1 13 30.3t31.5 12.2t30.7-12.2t12.2-30.3v-106.4q0-18.6-12.4-31.7t-30.5-13.2t-31.3 13.2t-13.2 31.7v106.4z m286.6 118.2q0 18.1 13.2 30.8q11.7 12.2 29.1 13.4t32.4-13.4l74.8-74.7q13.6-13.7 13.6-31.8q0-18.5-13.2-31.7t-31.7-13.2q-16.6 0-29.8 13.2l-75.2 76.2q-13.2 12.2-13.2 31.2z m42 614.3q0 19.5 12.7 32.2l33.7 32.7q19.1 12.7 32.7 12.7q16.1 0 29.1-13.4t12.9-32q0-17.6-13.6-30.3l-32.3-33.7q-13.6-12.7-31.7-12.7t-30.8 13t-12.7 31.5z m75.2-328.6q0 18 14.2 30.7q13.2 14.2 31.7 14.2h105.5q18.1 0 31.2-13.2t13.2-31.7t-12.9-31.5t-31.5-13h-105.5q-18.5 0-32.2 13.2t-13.7 31.3z"/></svg>