<svg height="1000" width="1244.1" xmlns="http://www.w3.org/2000/svg"><path d="m-1 598.6q0 67.9 33 126.3t90.1 93.5t125 38q9.7 0 9.7-8.7v-69.4q0-9.7-9.7-9.7q-66.4-3.5-113.3-53t-46.9-117q0-64.4 44-112t108.8-55.4l27.4-1.5q10.2 0 10.2-9.3l4-28.3q8.3-84.5 71-141.1t148.2-56.7q84 0 147.7 56.9t73 140.9l2.9 30.3q0 8.8 9.3 8.8h84q68.8 0 119.6 49.8t50.8 117.6q0 67.4-46.9 117t-113.8 53q-9.7 0-9.7 9.7v69.4q0 8.7 9.7 8.7q67.9-1.9 125-37.3t89.9-94t32.7-126.5q0-57.6-21.5-104q60.6-74.2 60.6-171.8q0-73.8-36.7-136.5t-99.1-99.1t-135.7-36.4q-121.1 0-201.7 90.3q-63.9-34.2-140.1-34.2q-109.9 0-195.1 68.1t-109.1 174.1q-85.9 20.5-141.6 90.4t-55.7 159.1z m307.2 45.9q0 29.8 22.2 50.8t52.9 21q31.3 0 52-20.7t20.8-51.1q0-19.5-18.1-52.5t-33.7-51.5q-16.6-17.6-21-21.9l-18.5 21q-21 22.4-38.8 53.7t-17.8 51.2z m129.8-683.1q0 20 12.7 31.8l33.2 34.1q33.2 24.9 63.5 0q12.7-15.1 12.7-33.2t-12.7-30.7l-33.2-33.7q-14.6-13.2-31.7-13.2q-19.1 0-31.8 13.2t-12.7 31.7z m25.4 889.2q0 51.3 35.4 86.2t85.7 34.9q50.8 0 86.2-35.7t35.4-85.4q0-42.5-41.5-102.6q-36.1-47.3-66.4-77.6q-6.4-4.4-13.7-11.7l-12.2 11.7q-27.8 25.4-66.4 76.7q-42.5 59.1-42.5 103.5z m76.7-344.7q0 19.5 14.9 33.7t35.9 14.1q20 0 34.1-14.1t14.2-33.7q0-32.3-48.3-83.5l-13.2 13.1q-14.2 15.2-25.9 36.2t-11.7 34.2z m175.8-315.5q51.7-51.7 128.4-51.7q76.2 0 129.4 53.7t53.2 130.4q0 46.8-26.4 95.7q-75.2-74.7-181.1-74.7h-16.6q-22.5-90.9-86.9-153.4z m83.5-273.9q0 18.6 13.4 31.7t31.5 13.2t30-13.2t12-31.7v-106q0-18.5-12-30.7t-30-12.2q-18.6 0-31.8 12.2t-13.1 30.7v106z m287.1 120.6q0 19.1 13.2 30.8q13.6 12.7 28.8 12.7q14.1 0 32.2-12.7l74.7-74.7q13.7-13.7 13.7-32.3q0-19-13-31.7t-31.5-12.7q-17.1 0-30.2 13.2l-74.7 74.7q-13.2 13.2-13.2 32.7z m41.5 613.3q0 19.5 12.2 33.2l34.2 30.3q11.2 14.1 30.7 14.1q19.1 0 30.3-14.1q13.7-12.2 13.7-30.3q0-17.6-13.7-30.3l-31.7-33.7q-13.7-12.7-32.3-12.7q-18 0-30.7 12.7t-12.7 30.8z m75.7-327.6q0 17.5 13.1 30.2q13.7 12.7 32.3 12.7h105.4q18.6 0 31.8-12.4t13.2-30.5t-13.2-31.3t-31.8-13.2h-105.4q-18.6 0-32 13.2t-13.4 31.3z"/></svg>