<svg height="1000" width="1244.1" xmlns="http://www.w3.org/2000/svg"><path d="m0.5 598.1q0 104 72.5 178.5t177 79.8q8.8 0 8.8-8.7v-69.9q0-9.2-8.8-9.2q-66.4-3.5-112.8-53t-46.4-117.5q0-64.9 44-112.5t109.8-55.4l25.4-2q10.3 0 10.3-9.3l3.4-27.8q8.3-84.5 71.5-141.3t148.7-56.9t148.9 56.9t71.3 141.3l3.9 29.8q0 9.3 9.3 9.3h86.9q68.4 0 118.2 49.8t49.8 118.1q0 66.5-46.6 115.8t-112.6 54.7q-8.8 0-8.8 9.2v69.9q0 8.7 8.8 8.7q68.4-1.9 125-37.3t89.1-93.8t32.5-127.2q0-55.6-21.5-102q59.1-73.2 59.1-170.9q0-55.7-21.5-106.2t-58.1-87.2t-87.2-58.1t-106.2-21.5q-117.6 0-198.2 86.5q-62-33.2-142.1-33.2q-110.3 0-194.8 68.1t-107.4 174.5q-87.9 20.1-144.6 89.9t-56.6 160.1z m282.2 348.7q0 14.1 8.3 27.6t23.9 18.8q15.2 5.3 32-3.2t22.7-28.6l12.7-54.7q5.4-16.1-3.6-32.4t-26.6-21.8q-19.6-4.8-35.2 4.4t-19 27.9l-14.2 51.7q-1 6.9-1 10.3z m67.9-245.6q0 29.8 33.2 41q17.1 5.8 33.2-2.7t21.5-27.6l13.2-53.7q5.3-16.1-3.7-32.2t-26.6-22q-19.1-4.9-34.7 4.2t-19 27.1l-15.6 53.2q-1.5 6.8-1.5 12.7z m63.5 410.6q0 12.7 8.8 25.9t25.3 18.6q0.5 0 5.2 0.7t7.5 0.7q10.8 0 19.1-3.9q14.6-6.3 21.5-30.3l14.1-51.7q5.4-18.1-3.6-34t-26.6-20.7q-18.1-5.4-34 3.7t-20.7 26.6l-14.2 53.2q-2.4 9.8-2.4 11.2z m23.9-1149.4q0 19.5 13.7 32.2l33.7 33.7q26.3 26.4 61 0q12.7-13.7 12.7-31.7t-12.7-31.8l-32.2-34.1q-12.7-12.7-31.3-12.7t-31.7 13.2t-13.2 31.2z m46.4 899.9q0 13.2 8.3 26.4t24.4 18q18.1 5.4 33.2-2.4t21-29.3l13.2-52.7q5.3-18.1-3.4-34t-26.4-21.2q-19.5-5.4-35.4 4.1t-19.3 27.6l-14.6 53.7q-1 3-1 9.8z m145 89.8q1.9 28.9 33.2 43l12.7 2q12.7 0 24.9-8.3t17.1-25.9l14.6-52.7q4.9-18.6-4.6-34.5t-27.6-19.3q-16.1-5.3-32.2 3.7t-21.5 26.6l-14.2 53.2z m72.7-248q0 12.7 8.1 25.1t23.7 16.9l13.2 1.5q15.1 0 26.8-9.3t14.7-24.4l14.6-51.8q5.4-18.1-3.6-33.7t-26.7-20.5q-18-5.4-33.4 3.2t-20.3 26.1l-15.6 55.2q-1.5 6.3-1.5 11.7z m17.1-513.7q51.8-49.8 125-49.8q76.7 0 131.1 54t54.5 130.6q0 43-24.9 91.8q-74.7-74.7-180.7-74.7h-17.1q-21-87.9-87.9-151.9z m80.6-272.4q0 19.5 12.5 32t31.9 12.4t32.3-12.4t12.7-32v-105q0-19.5-12.7-32.2t-32.3-12.7t-31.9 12.7t-12.5 32.2v105z m289.1 119.6q0 19.5 11.7 31.7q16.1 13.2 32.2 13.2q14.7 0 30.8-13.2l74.7-74.7q12.7-14.1 12.7-32.7t-12.7-31.2t-30.8-12.7t-31.7 12.7l-75.2 74.7q-11.7 13.6-11.7 32.2z m41 616.2q0 18.1 13.7 32.7l32.2 33.2q16.1 16.1 32.2 16.1q14.7 0 30.3-16.1q14.1-14.1 13.7-32t-13.7-31l-33.7-34.1q-12.7-12.7-29.8-12.7q-18.5 0-31.7 12.9t-13.2 31z m76.6-328.6q0 17.6 12.7 30.3t30.3 12.7h106.5q20 0 32.7-12.2t12.7-30.8q0-19.5-13-32.2t-32.4-12.7h-106.5q-18.1 0-30.5 13.2t-12.5 31.7z"/></svg>