<svg height="1000" width="1244.1" xmlns="http://www.w3.org/2000/svg"><path d="m0.5 598.1q0 104.5 72.7 179.5t177.3 79.8q9.8 0 9.8-8.8v-69.8q0-9.3-9.8-9.3q-66.9-3.4-114-53.4t-47.1-118q0-64.9 44.1-112.7t109.7-55.7l27.8-2q10.3 0 10.3-9.2l3.4-28.9q8.3-84.4 71.5-141.3t149.2-56.9q84.9 0 149.1 56.9t73 141.3l3.9 30.3q0 9.8 9.3 9.8h84q69.8 0 120.9 50t51 118.4q0 67.9-47.4 118t-114.2 53.4q-10.3 0-10.3 9.3v69.8q0 8.8 10.3 8.8q104.5-3.4 177-78.8t72.5-180.5q0-56.6-22-104.4q61.5-75.2 61.5-173.4q0-73.7-36.8-137t-100.1-100.3t-137-37.1q-122.1 0-203.1 91.3q-62.5-34.2-141.6-34.2q-110.4 0-196.1 68.4t-110.1 175.3q-86.4 20.5-142.6 90.8t-56.1 160.6z m277.8 367.7q7.8 17.1 23.9 23.5q15.7 7.8 33 1.2t23.2-23.2q7.8-17.1 1.2-33.7t-23.2-23q-15.6-8.3-32.2-1.4t-24.4 24.4q-7.8 13.7-1.5 32.2z m33.7-147.9q0 10.7 4.9 20q15.1 23.9 46.4 23.9q24.9 0 36.1-33.7l54.2-167.5q6.4-19-3.6-34.9t-28.6-19.3q-17.1-5.3-33 3.2t-21.2 26.1l-53.7 168q-1.5 7.3-1.5 14.2z m97.2 292.5q0 10.2 2.4 15.1q6.9 17.1 23.5 23.4q7.3 3.9 18 3.9q4.9 0 15.7-2.9q17-6.3 24.6-23.7t-0.2-34.4t-23.5-23.7t-32.2 0.3q-15.1 5.8-21.7 18.3t-6.6 23.7z m31.7-1153.4q0 19.6 12.7 31.3l33.7 33.7q12.7 12.7 28.3 14.1q16.1 2.5 32-11.9t15.9-33.5q0-18.5-12.7-31.2l-32.7-33.2q-14.7-13.2-32.7-13.2q-19.1 0-31.8 12.7t-12.7 31.2z m6.9 1013.2q0 12.7 8 24.9t24.7 17.1q8.8 2 12.7 2q11.7 0 20-3.9q15.6-6.4 22.4-29.8l93.8-319.9q5.4-18.5-2.9-33.9t-25.9-20.3q-18.6-5.3-34.2 3t-21 26.3l-96.2 322.3q-1.4 7.3-1.4 12.2z m179.6-20q0 10.7 3 16.1q6.8 16.1 23.4 23q8.3 3.9 18.1 3.9q4.9 0 15.6-3q17.6-6.8 23.9-22.9q6.4-17.1 0.3-33t-21.8-23.7q-17.5-8.3-34.4-1.4t-25.1 24.4q-3 5.4-3 16.6z m37.2-133.8q0 12.2 8 23.7t24.2 16.3q6.3 1.5 13.2 1.5q30.2 0 41-31.7l53.7-165.6q5.8-18-3.4-33.6t-26.9-20.6q-18.5-5.3-33.4 3t-20.8 26.3l-53.2 166.5q-2.4 10.8-2.4 14.2z m55.6-628.9q52.3-50.3 129.9-50.3q76.2 0 130.1 53.5t54 129.6q0 48.8-26.9 96.2q-74.7-75.2-182.6-75.2h-16.1q-23-90.3-88.4-153.8z m84.5-274.4q0 18.5 13.4 31.7t32 13.2q18.1 0 30.5-13.2t12.5-31.7v-107.4q0-18.6-12.5-31.8t-30.5-13.2q-18.6 0-32 13.2t-13.4 31.8v107.4z m289.1 119.1q0 19.1 13.1 31.3q11.8 13.6 30.1 13.4t31.5-13.4l75.2-75.2q14.1-11.7 14.1-31.3q0-18.5-13.4-31.7t-32-13.2q-17.1 0-29.8 14.2l-75.7 74.7q-13.1 12.2-13.1 31.2z m41.9 620.1q0 17.6 12.7 31.3l34.2 32.7q11.2 14.2 31.3 14.2q18.5 0 29.8-14.2q14.1-12.7 14.1-31.2t-14.1-31.8l-33.7-32.2q-12.2-13.7-30.3-13.7t-31 13.2t-13 31.7z m76.2-332q0 18.6 13.7 31.3q13.7 13.6 32.2 13.6h106q18.5 0 32-13.1t13.4-31.8q0-18.1-13.2-30.5t-32.2-12.5h-106q-19.5 0-32.7 12.5t-13.2 30.5z"/></svg>