<svg height="1000" width="1244.1" xmlns="http://www.w3.org/2000/svg"><path d="m2.4 598.6q0 104 72.6 179t177.4 79.8q8.8 0 8.8-8.8v-69.8q0-8.8-8.8-8.8q-66.9-3.4-114.2-53.4t-47.4-118q0-64.4 44.5-112.3t109.8-55.6l27.4-2.5q9.7 0 9.7-8.8l3.4-28.3q8.3-84.5 71.8-141.6t148.9-57.1q85 0 148.7 57.1t72.5 141.6l3.9 29.8q0 9.8 9.3 9.8h84q69.3 0 120.1 49.8t50.8 118.1q0 67.9-46.9 118t-113.7 53.4q-10.3 0-10.3 8.8v69.8q0 8.8 10.3 8.8q104-3.4 176.2-78.8t72.3-180q0-57.1-21.5-104.5q60.6-75.2 60.6-172.3q0-74.2-36.9-137.5t-99.9-99.8t-136.7-36.6q-121.1 0-201.6 90.8q-64-34.2-141.2-34.2q-110.3 0-196 68.6t-109.6 175q-86.4 20.6-142.4 90.6t-55.9 159.9z m281.3 357q0 13.2 8.3 25.6t25.4 17.3q8.8 2 14.6 2q30.3 0 39.6-33.2l82.5-306.2q5.4-18.5-4.1-34.6t-27.6-19.6q-17.1-5.3-33 3.5t-21.2 26.3l-82.6 307.6q-1.9 7.8-1.9 11.3z m135.2 160.6q0 14.7 7.9 27.1t26.8 15.4q8.8 1.9 14.2 1.9q12.2 0 23.2-9t13.9-25.1l125-465.4q4.9-18-3.4-33.4t-25.9-20.8q-18.1-5.3-33.9 3.5t-20.8 26.3l-125 465.4q0 1.4-1 6.5t-1 7.6z m22.5-1157.7q0 19 12.7 31.7l34.2 34.2q15.6 11.7 31.7 11.7q16.6 0 30.3-12.2t13.7-30.7q0-19.1-12.7-33.2l-32.7-33.7q-14.2-13.2-31.3-13.2q-19.5 0-32.7 13.4t-13.2 32z m194.3 998.5q0 12.7 8.1 24.7t24.2 16.8q8.8 2 12.7 2q14.1 0 26.1-7.6t15.4-25.6l82.5-306.2q4.9-18-3.9-33.4t-26.4-20.8q-18.5-5.3-33.9 3.5t-20.3 26.3l-82.5 307.6q-2 8.8-2 12.7z m84.5-768q55.2-52.3 128.9-52.3q76.7 0 130.6 54t54 131.1q0 48.8-26.9 96.2q-75.6-75.7-182.1-75.7h-16.6q-22-90.3-87.9-153.3z m84.5-273.5q0 18.1 12.9 30.5t31.5 12.5q18.1 0 30.5-12.2t12.5-30.8v-106.9q0-20-12.2-32.7t-30.8-12.7q-19.5 0-32 12.9t-12.4 32.5v106.9z m288.1 118.7q0 19 13.6 30.7q10.8 12.2 28.9 13.5t32.7-13.5l74.7-74.7q14.1-13.1 14.1-32.7q0-19-13.1-31.7t-32.3-12.7q-16.1 0-30.2 13.2l-74.8 75.2q-13.6 13.1-13.6 32.7z m42.5 617.2q0 18.5 12.6 32.7l33.3 32.7q13.6 10.7 31.2 10.7l1.5 1q17.5 0 30.2-12.7t12.7-31.7q0-18.6-14.1-30.3l-31.8-34.2q-14.1-12.7-32.2-12.7t-30.8 13t-12.6 31.5z m75.6-329.6q0 19 13.2 30.7q13.7 13.7 32.7 13.7h106q18.1 0 31.2-12.9t13.2-31.5t-13.2-32t-31.2-13.4h-106q-18.5 0-32.2 13.4t-13.7 32z"/></svg>