<svg height="1000" width="1244.1" xmlns="http://www.w3.org/2000/svg"><path d="m2.4 599.1q0 104 72.3 178.7t176.8 79.6q9.2 0 9.2-8.8v-71.3q0-9.2-9.2-9.2q-67.9-5.4-114.3-54t-46.4-115q0-65.4 44.5-114t109.3-53.9l27.4-4q9.7 0 9.7-8.7l3.5-26.4q8.3-84.5 71.5-141.4t148.7-56.9q84.9 0 148.4 56.7t72.8 141.6l3.4 30.3q0 8.8 9.3 8.8h83.9q70.8 0 120.6 49.3t49.9 118.6q0 66.4-46.4 115t-114.3 54q-9.8 0-9.8 9.2v71.3q0 8.8 9.8 8.8q104-3.4 176.3-78.6t72.2-179.7q0-52.7-24.4-107.9q61.6-73.2 61.6-170.4q0-55.7-21.8-106.2t-58.1-87.2t-86.9-58.1t-105.7-21.4q-120.6 0-202.2 90.3q-66.9-32.2-138.6-32.2q-110.9 0-196.1 67.8t-109.1 175.3q-85.9 20-141.9 90.1t-55.9 159.9z m390.7 586.9h15.6l276.4-408.7q2.9-3.4 1.4-7t-6.8-3.7h-113.8l119.2-219.2q5.8-11.3-6.9-11.3h-153.8q-6.3 0-11.2 7.4l-111.8 297.8q-2 10.8 7.3 10.8h112.3z m45.4-1228q0 19.1 13.2 32.2l33.7 33.7q32.7 24.9 62.9 0q13.2-14.6 13.2-33.2q0-17.6-13.2-30.7l-32.7-33.7q-14.6-13.2-32.2-13.2q-18.6 0-31.7 13.4t-13.2 31.5z m278.8 230.5q53.2-53.2 128.9-53.2q76.2 0 129.9 54.2t53.7 131.3q0 47.4-26.4 94.2q-76.2-73.2-180.2-73.2h-16.1q-21-88.9-89.8-153.3z m84-275.4q0 19.5 12.7 32.2t32.2 12.7q18.5 0 30.8-12.4t12.2-32.5v-106.5q0-18.5-12.2-30.7t-30.8-12.2t-31.7 12.2t-13.2 30.7v106.5z m287.6 120.6q0 18.5 13.6 31.2q14.2 13.2 29.3 13.2q12.7 0 32.3-13.2l74.7-74.7q13.6-14.6 13.6-32.7q0-19-13.1-31.7t-31.8-12.7q-17.1 0-30.3 13.2l-74.7 74.7q-13.6 14.6-13.6 32.7z m42.4 615.7q0 18.1 12.7 31.8l33.2 34.1q12.7 12.7 30.3 12.7q18.6 0 31.8-13.4t13.1-32.5q0-17.1-13.6-29.8l-31.8-34.1q-14.6-12.2-32.2-12.2q-18.5 0-31 12.7t-12.5 30.7z m75.7-328.6q0 17.6 13.2 29.8q13.2 13.2 31.3 13.2h106.9q18.6 0 31.5-12.5t12.9-30.5q0-18.6-13.2-31.7t-31.2-13.2h-106.9q-18.1 0-31.3 13.2t-13.2 31.7z"/></svg>