<svg height="1000" width="892.6" xmlns="http://www.w3.org/2000/svg"><path d="m-121.1 480.5q0-19.1 13.2-32.3q13.7-12.7 31.2-12.7h106.5q18.1 0 30 13.2t12 31.8t-12 31.5t-30 12.9h-106.5q-18 0-31.2-13.2t-13.2-31.2z m148.9 360.8q0-18.1 12.2-31.7l76.7-74.2q11.7-12.3 30.8-12.3q18.5 0 31 11.8t12.4 29.7q0 19.1-12.7 33.3l-74.2 74.2q-31.7 24.9-64 0q-12.2-13.2-12.2-30.8z m0-721.2q0-18 12.2-31.7q15.2-12.7 33.2-12.7q17.1 0 30.8 12.7l74.2 76.6q12.7 11.8 12.7 30.8q0 18.6-12.4 31t-31 12.5q-19.1 0-30.8-12.7l-76.7-74.3q-12.2-13.1-12.2-32.2z m132.8 360.4q0-72.8 36.7-135.5t99.3-99.4t135.5-36.6q54.7 0 105 21.7t86.7 58.1t57.8 86.7t21.5 105q0 73.2-36.4 135.7t-98.8 98.9t-135.8 36.4t-135.7-36.4t-99.1-98.9t-36.7-135.7z m88.4 0q0 76.1 53.5 130.1t129.6 54t130.2-54t53.9-130.1q0-75.2-53.9-128.4t-130.2-53.3q-75.7 0-129.4 53.3t-53.7 128.4z m138.7 404.8q0-18.6 12.9-31.3t31.5-12.7q19.1 0 31.8 12.7t12.7 31.3v103.5q0 19-13 32.2t-31.5 13.2t-31.5-13.2t-12.9-32.2v-103.5z m0-807.2v-106.4q0-18.1 13.2-31.3t31.2-13.2t31.3 13.2t13.2 31.3v106.4q0 18.1-13 30.1t-31.5 11.9t-31.5-11.9t-12.9-30.1z m287.6 686.5q0-18 11.7-29.2q11.7-12.3 29.3-12.3q19.1 0 31.3 12.3l76.1 74.2q12.7 13.6 12.7 31.7t-12.7 30.8q-31.2 24.4-62.5 0l-74.2-74.2q-11.7-13.2-11.7-33.3z m0-568.8q0-19.5 11.7-30.8l74.2-76.6q13.7-12.7 30.8-12.7q18.5 0 31.5 13.2t12.9 31.2q0 19.5-12.7 32.2l-76.1 74.3q-14.2 12.7-31.3 12.7q-17.6 0-29.3-12.5t-11.7-31z m117.7 284.7q0-18.6 12.7-32.3q12.7-12.7 29.7-12.7h105.5q18.1 0 31.5 13.5t13.4 31.5t-13.4 31.2t-31.5 13.2h-105.5q-18 0-30.2-12.9t-12.2-31.5z"/></svg>