<svg height="1000" width="1244.1" xmlns="http://www.w3.org/2000/svg"><path d="m-141.6 815.4q0 18.6 12.9 30.8t32.5 12.2h975.1q18.6 0 31.5-12.5t12.9-30.5q0-18.5-12.9-31.5t-31.5-12.9h-975.1q-19.5 0-32.5 12.9t-12.9 31.5z m136.7-163.1q0 18.1 13.2 30.3q13.2 14.2 31.3 14.2h975q18.1 0 30.6-13t12.4-31.5q0-18-12.2-30.5t-30.8-12.4h-975q-18.6 0-31.5 12.4t-13 30.5z m5.9-125q0 6.9 8.3 6.9h75.2q4.9 0 10.2-8.3q18.6-40.5 55.4-66.4t81.3-29.3l28.9-3.9q8.7 0 8.7-9.3l3.5-26.4q8.3-84.4 71.5-141.1t148.7-56.6q84.4 0 147.4 56.1t71.8 139.7l3.9 30.2q0 8.8 10.3 8.8h83.5q50.3 0 91.5 26.9t61.3 71.3q5.4 8.3 10.7 8.3h74.8q10.7 0 7.3-11.7l-10.8-28.8q59.6-73.8 59.6-172.4q0-55.2-21.5-105.5t-57.6-86.9t-86.9-58.1t-106.5-21.5q-120.6 0-199.2 87.4q-65.9-32.7-139.6-32.7q-109.4 0-194.8 68.9t-109.4 175.2q-138.7 36.7-186.1 174.4q-1.4 2.4-1.4 4.8z m84.9 448.3q0 18.5 14.2 31.2q12.2 13.7 30.3 13.7h976q18.6 0 31.8-13.4t13.2-31.5t-13.2-30t-31.8-12h-976q-18.6 0-31.5 12t-13 30z m342.3-1014.2q0 18.6 12.2 30.8l33.2 33.2q13.2 14.2 30.8 14.2t30.8-13t13.1-32t-12.7-32.7l-33.2-31.7q-12.7-13.7-31.2-13.7q-19.1 0-31 12.9t-12 32z m276.4 228.1q52.7-52.8 126.9-52.8q76.7 0 130.7 54.2t53.9 130.4q0 50.8-25.4 93.7q-74.2-74.2-181.1-74.2h-17.1q-21.5-90.8-87.9-151.3z m84-272.5q0 18.1 12.4 30.5t30.5 12.5q19.6 0 32.8-12.5t13.1-30.5v-106.5q0-18-13.6-31.2t-32.3-13.2q-18 0-30.5 13t-12.4 31.4v106.5z m286.1 118.6q0 18.1 12.2 31.3q28.8 28.3 64.5 0l74.2-74.7q12.7-13.7 12.7-33.2q0-18.1-12.7-30.8t-30.8-12.7q-18.5 0-31.2 12.7l-76.7 76.7q-12.2 13.2-12.2 30.7z m42 614.3q0 18.6 13.2 31.3l33.7 33.6q12.7 12.7 30.2 12.7q16.2 0 31.8-12.7q12.7-13.6 12.7-33.2q0-17.5-12.7-29.3l-33.7-34.1q-13.7-12.7-31.3-12.7q-18.5 0-31.2 12.9t-12.7 31.5z m77.1-328.6q0 19 13.7 31.2q11.7 13.2 30.8 13.2h106.4q18.1 0 30.5-12.9t12.5-31.5t-12.5-31.3t-30.5-12.7h-106.4q-18.6 0-31.5 13t-13 31z"/></svg>