<svg height="1000" width="962.4" xmlns="http://www.w3.org/2000/svg"><path d="m-137.7 418q0 21 14.7 34.6t37.6 13.7h87.8q21 0 35.9-13.9t14.9-34.4q0-22.5-14.6-37.1t-36.2-14.7h-87.8q-23 0-37.6 14.4t-14.7 37.4z m91.8 322.2q0 75.7 55.4 131.1t131.1 55.5h357q75.6 0 129.6-54.7t54-131.9q0-38.5-10.3-63.9q64.9-41.5 102.8-110.6t37.8-147.7q0-63.5-24.9-121.4t-66.6-99.6t-99.6-66.6t-120.9-24.9q-85.4 0-157.5 42t-113.2 113.7t-41.3 156.8v17.5q-78.1 44.5-103 129.9q-59.1 18.6-94.8 65.9t-35.6 108.9z m81.5-737.8q0 22 13.7 35.2l84 87.9q36.6 27.8 73.2 0q14.7-14.7 14.7-36.6q0-21-14.7-36.7l-85.9-85.4q-16.6-15.1-36.1-15.1q-22 0-35.4 14.6t-13.5 36.1z m22 737.8q0-32.7 21-56.1t53.2-26.4l32.3-4.4q10.2 0 10.2-11.7l4.9-29.3q5.4-44.9 37.8-75.2t76.9-30.3q45.5 0 78.9 30.3t38.8 75.2l4.9 33.7q4.9 11.7 12.7 11.7h68.4q33.7 0 58.6 24.4t24.9 58.1q0 34.7-24.9 59.8t-58.6 25.2h-357q-35.1 0-59.1-24.9t-23.9-60.1z m230.5-333q5.4-85.4 65.9-143.5t145.5-58.1q86.9 0 147.7 62t60.8 150.4q0 54.7-26.4 101.3t-71.7 75.4q-45.9-38.1-106-38.1q-22.9-68.3-80.3-108.8t-129.7-40.6h-5.8z m160.6-455.5q0 21.4 14.9 36.3t35.9 14.9q21.5 0 36.4-14.9t14.9-36.3v-122.1q0-20.5-14.9-34.4t-36.4-14q-21 0-35.9 14t-14.9 34.4v122.1z m329.1 792.9q0 21 14.2 36.7l85.4 84.4q32.3 33.2 72.8 0q14.2-13.2 14.2-35.1q0-20.5-14.2-34.7l-87.4-87.4q-14.2-13.2-35.7-13.2t-35.4 14.2t-13.9 35.1z m0-656.7q0 22 14.2 37.6q14.2 14.1 35.1 14.1q21.5 0 35.7-14.1l87.4-87.9q14.2-13.2 14.2-35.2q0-21.4-14.9-36.1t-36.4-14.6q-20.5 0-35.7 15.1l-85.4 85.4q-14.2 14.2-14.2 35.7z m134.8 330.1q0 21 14.6 34.6t37.6 13.7h87.4q21 0 35.9-13.9t14.9-34.4q0-22.5-14.6-37.1t-36.2-14.7h-87.4q-22.9 0-37.6 14.4t-14.6 37.4z"/></svg>