<svg height="1000" width="1244.1" xmlns="http://www.w3.org/2000/svg"><path d="m3.9 599.1q0 70.3 34.4 129.9t93.5 94t128.9 34.4h564q69.8 0 129.4-34.4t94.2-94t34.7-129.9q0-51.7-22-104q59.6-72.7 59.6-172.3q0-55.7-21.5-106.2t-58.1-87.2t-87.1-58.1t-106.2-21.5q-115.8 0-202.2 90.8q-60.5-34.2-140.6-34.2q-109.9 0-194.4 68.2t-108.4 174.5q-87.4 20-142.8 89.9t-55.4 160.1z m88.9 0q0-65.4 43.7-112.8t109.6-55.1l25.9-1.5q9.7 0 9.7-9.3l3.5-28.3q10.7-84.5 73.2-141.4t146.5-56.9q85.9 0 149.6 57.2t71.6 141.1l3.9 30.3q1.9 8.8 10.7 8.8h84q68.9 0 118.7 49.8t49.8 118.1q0 70.8-49.6 120.9t-118.9 50h-564q-68.3 0-118.1-50.5t-49.8-120.4z m349.1-639.1q0 19 12.7 32.7l34.2 33.2q19.5 14.6 33.2 13.2q16.1 0 28.8-13.5t12.7-32.4t-13.7-30.8l-30.8-34.2q-14.1-12.7-31.7-12.7q-19 0-32.2 13t-13.2 31.5z m278.3 230.4q54.2-52.2 127.5-52.2q77.1 0 131.1 53.7t53.9 130.9q0 48.8-26.4 95.7q-75.6-74.7-181.6-74.7h-16.6q-19.5-85-87.9-153.4z m84.5-274.9q0 20 12.2 32.3t30.8 12.2q20 0 32.2-12.2t12.2-32.3v-106.4q0-18.6-12.5-30.8t-31.9-12.2q-18.6 0-30.8 12.2t-12.2 30.8v106.4z m287.6 119.7q0 20 11.7 32.2q16.6 12.7 32.2 12.7q14.2 0 30.8-12.7l74.7-74.7q12.7-14.2 12.7-33.2q0-18.6-12.7-31.3t-30.8-12.7q-18.5 0-30.2 12.7l-76.7 74.7q-11.7 13.7-11.7 32.3z m41.5 616.2q0 18.5 13.2 32.7l33.7 32.7q11.7 12.7 30.2 12.7t31-12.9t12.5-32.5q0-17.6-12.7-30.3l-33.7-33.7q-12.7-12.7-29.8-12.7q-18.5 0-31.5 12.7t-12.9 31.3z m76.2-328.6q0 18 13.6 30.2q12.7 12.7 31.8 12.7h106.4q18.1 0 30-12.2t12-30.7t-12-31.5t-30-13h-106.4q-18.6 0-32 13.2t-13.4 31.3z"/></svg>