<svg height="1000" width="552.2" xmlns="http://www.w3.org/2000/svg"><path d="m1.5 292q0-38.6 28.3-66.9q27.8-27.8 66.9-27.8q38.6 0 66.1 27.8t27.6 66.9t-27.6 67.1t-66.1 28.1q-39.1 0-67.2-28.3t-28-66.9z m45.9 0q0 20 14.6 34.7t34.7 14.6t34.4-14.6t14.4-34.7t-14.4-34.4t-34.4-14.4q-20.5 0-34.9 14.1t-14.4 34.7z m229.9 358.9q0 11.2 8.1 19.3t19.3 8t19.3-8t8-19.3v-197.3h149q11.2 0 19.2-8.3t8.1-19.5q0-11.7-7.8-19.5t-19.5-7.9h-149v-142.1h199.3q11.2 0 18.7-8t7.6-19.3t-7.6-19.3t-18.7-8h-248.6q-5.4 0-5.4 5.8v443.4z"/></svg>