<svg height="1000" width="1060.1" xmlns="http://www.w3.org/2000/svg"><path d="m-143.6 814.9q0-19 13.2-31.7t32.7-12.7h972.2q19.5 0 32 12.5t12.4 31.9q0 18.1-12.9 30.3t-31.5 12.2h-972.2q-19.5 0-32.7-12.2t-13.2-30.3z m136.3-163.5q0-18.6 14.1-31.3q11.8-11.7 30.8-11.7h972.7q18 0 30 12.2t11.9 30.8t-12.2 31.5t-29.7 12.9h-972.7q-18.6 0-31.7-13.2t-13.2-31.2z m6.8-124.1q0 6.9 7.8 6.9h74.7q5.4 0 10.8-8.3q18.5-40.5 55.4-66.4t80.8-29.3l28.3-3.9q8.8 0 8.8-9.3l3.4-25.9q8.3-84.5 71.6-140.9t148.2-56.4q84.4 0 147.2 55.7t71.5 139.7l3.9 29.7q0 8.8 10.3 8.8h83q50.3 0 91.5 26.9t61.3 71.3q5.4 8.3 10.8 8.3h74.7q9.2 0 7.3-11.7q-23-80.1-90.8-130.9t-154.8-50.8h-16.6q-25.9-104-109.2-170.1t-190.1-66.2q-109.4 0-194.1 68.6t-108.7 175q-66.4 15.7-116.7 63t-69.8 113.3v-1.9q-0.5 1.4-0.5 4.8z m84 447.3q0-18.5 13.7-30.8q11.7-11.7 31.2-11.7h973.2q18.5 0 31.5 12.2t12.9 30.3q0 18.6-13.2 31.7t-31.2 13.2h-973.2q-18 0-31.5-13.4t-13.4-31.5z"/></svg>