<svg height="1000" width="1079.6" xmlns="http://www.w3.org/2000/svg"><path d="m1 599.1q0 104 72.5 178.7t177 79.6q8.8 0 8.8-8.8v-69.8q0-8.8-8.8-8.8q-66.9-3.4-113.8-53.2t-46.9-117.7q0-64.4 44-112.3t108.9-55.6l27.8-1.5q10.3 0 10.3-9.8l3.4-27.8q8.3-84.5 71.3-141.4t148.4-56.9q85 0 148.7 56.9t72.5 141.4l3.9 30.3q0 8.8 8.8 8.8h84q69.3 0 120.1 49.8t50.8 118.1q0 67.9-47.1 117.7t-113.6 53.2q-10.2 0-10.2 8.8v69.8q0 8.8 10.2 8.8q50.8-1.4 97-22.7t79.3-55.6t52.7-81.6t19.6-98.4q0-69.8-34.9-128.6t-94.5-92.8t-129.4-33.9h-16.6q-25.4-104.5-109.6-170.9t-191.7-66.5q-109.9 0-195.3 68.2t-109.4 174.5q-86.4 20-142.3 90.1t-55.9 159.9z m283.7 375q7.3 16.6 23.9 23.9q15.6 7.9 32.5 1t23.2-23.4q7.8-17.1 1.4-33.5t-23.4-22.7q-15.6-8.3-32.2-1.4t-24.5 24.4q-7.3 12.7-0.9 31.7z m32.7-147q0 12.3 8.3 23.7t24.4 16.9q15.1 8.8 32.2 0.7t23-31l46.8-176.3q4.9-19.5-4.1-34.9t-27.6-18.8q-6.3-1.4-13.2-1.4q-12.2 0-24.1 7.8t-16.9 22.9l-46.4 176.8q-2.4 10.7-2.4 13.6z m97.2 291.1q0 9.2 2.9 15.1q6.8 17.1 23.4 23.4q7.3 3.9 17.1 3.9q4.9 0 15.6-2.9q17.6-6.3 25.2-23.4t-0.3-34.2t-23.4-23.9t-32.7 0q-14.7 6.3-21.3 18.5t-6.5 23.5z m38-135.8q0 28.8 32.8 38.1q8.7 2 13.1 2q11.8 0 20.1-3.9q15.6-5.9 21.4-29.8l87.4-327.7q4.9-18.5-3.4-33.7t-25.9-20q-6.8-1.4-13.6-1.4q-13.2 0-25.7 7.8t-15.3 22.9l-88.9 330.1q-2 10.7-2 15.6z m179.2-23.9q0 9.3 3.9 16.6q6.4 15.1 23 22.9q8.8 3.5 17.6 3.5q4.9 0 15.6-3q16.6-6.3 23.9-22.9q5.9-17.1-0.2-32.7t-21.8-23.5q-17.5-8.3-33.9-1.4t-24.2 24.4q-3.9 7.3-3.9 16.1z m37.1-133.8q0 11.2 8.3 23.4t23.5 17.1q12.2 2.5 14.1 2.5q7.4 0 19.1-5.4q15.6-7.3 21-27.3l46.9-173.9q0-1.4 0.9-6.3t1-7.3q0-12.2-8-24t-23.7-16.1q-6.9-1.4-14.2-1.4q-12.7 0-24.2 7.5t-15.8 23.2l-46.9 174.8q0 1.5-1 5.9t-1 7.3z"/></svg>