<svg height="1000" width="1115.7" xmlns="http://www.w3.org/2000/svg"><path d="m35.6 811q0-20.5 14.7-32.2q10.7-12.2 32.7-12.2h955.1q19.5 0 33.2 12.7t13.7 31.7q0 18.6-13.7 32.5t-33.2 13.9h-955.1q-19.5 0-33.4-13.9t-14-32.5z m102.6-431.6q0-20 12.7-32.7q13.2-13.7 33.2-13.7q18 0 31.2 13.7l78.2 78.1q14.1 14.2 14.1 32.7q0 18.1-14.1 32.2q-11.8 14.2-31.3 14t-33.2-14l-78.1-78.1q-12.7-12.2-12.7-32.2z m153.3 291q-3.4 12.2 7.8 12.2h77.2q5.3 0 11.7-8.8q23.4-49.8 69.3-79.1t102.1-29.3q56.6 0 103.5 29.3t70.3 79.1q6.3 8.8 11.7 8.8h77.7q9.7 0 7.8-12.2q-26.4-87.9-101.6-143.3t-169.4-55.4q-93.8 0-167.8 55.2t-100.3 143.5z m223.6-336.4v-111.3q0-19.6 12.7-33.2t31.8-13.7q19.5 0 32.7 13.4t13.2 33.5v111.3q0 20-13.2 33.2t-32.7 13.2q-19.1 0-31.8-13.5t-12.7-32.9z m297.9 123.5q0-18 13.7-32.7l79.6-78.1q12.2-13.7 32.2-13.7q19 0 31.2 13.2t12.2 33.2q0 20.5-12.2 32.2l-76.6 78.1q-13.2 13.2-29.8 14.7q-17.6 1.9-34-12.7t-16.3-34.2z"/></svg>