<svg height="1000" width="1115.7" xmlns="http://www.w3.org/2000/svg"><path d="m-6.3 546.9q0-20.5 14.1-32.3q11.2-11.7 32.2-11.7h108.4q19.1 0 31.5 12.5t12.5 31.5q0 18.5-12.7 31.7t-31.3 13.2h-108.4q-19 0-32.7-13.2t-13.6-31.7z m48.8 264.6q0-18.5 13.2-31.7q12.7-12.2 31.7-12.2h948.2q19.1 0 32.5 12.7t13.4 31.2t-13.6 32t-32.3 13.4h-948.2q-18.6 0-31.7-13.4t-13.2-32z m105.9-633.8q0-20 12.2-30.7q13.2-14.2 32.3-14.2t32.2 14.2l75.2 76.1q13.2 12.7 13.2 31.3q0 19.5-12.7 32t-31.3 12.4q-17.1 0-31.2-12.7l-77.7-76.6q-12.2-10.8-12.2-31.8z m135.8 369.2q0 67.8 27.8 121.6q2.5 7.3 12.2 7.3h86.9q5.9 0 7.1-3.2t-3.6-8.5q-41.1-50.3-41.1-117.2q0-77.7 55.7-132.3t132.8-54.7q77.6 0 132.6 54.7t54.9 132.3q0 66.4-42 117.2q-2.9 4.8-2.9 6.3q-0.5 2.5 1.5 3.9t5.3 1.5h88.9q6.8 0 10.7-7.3q28.8-54.2 28.8-121.6q0-74.7-37.3-138.9t-101.6-101.8t-138.9-37.6t-138.9 37.6t-101.6 101.8t-37.3 138.9z m232.4-413.1v-108.9q0-18.6 13.4-32.2t32-13.7t32.2 13.7t13.7 32.2v108.9q0 18.5-13.7 32.2t-32.2 13.7t-32-13.7t-13.4-32.2z m293 120.6q0-18.6 13.2-31.3l75.1-76.1q13.2-14.2 31.8-14.2q19.5 0 32.7 13t13.2 31.9q0 20.1-11.7 31.8l-78.6 76.6q-12.7 11.8-30.8 11.8q-19.5 0.4-32.2-11.8t-12.7-31.7z m121.1 292.5q0-20.5 13.1-32.3q11.3-11.7 30.3-11.7h108.9q19.1 0 32.5 12.5t13.4 31.5q0 18.5-13.7 31.7t-32.2 13.2h-108.9q-18 0-30.7-13.2t-12.7-31.7z"/></svg>