<svg height="1000" width="1138.2" xmlns="http://www.w3.org/2000/svg"><path d="m-1.5 597.7q0 86.9 51.5 155t134.1 93l-34.2 87.9q-2 10.7 7.8 10.7h110.9l-50.8 182.7h15.1l203.6-257.4q3-3.9 0.8-7.5t-7.6-3.7h-113.3l128.9-241.2q5.9-11.2-7.3-11.2h-153.8q-6.9 0-11.7 7.3l-56.2 149.9q-56.1-14.2-92.8-60.8t-36.6-104.7q0-65 44.4-113.1t109.9-55.9l27.4-3.9q9.7 0 9.7-8.8l3.9-26.8q8.3-84.5 71.8-141.6t148.9-57.2q84.5 0 148.7 57.4t73.5 141.4l2.9 30.7q0 8.8 9.8 8.8h84q70.8 0 121.1 49.6t50.3 119.4q0 66.4-46.7 115.2t-114.5 54.2q-10.2 0-10.2 8.8v71.8q0 9.2 10.2 9.2q68.4-2.4 125.8-37.6t90.3-94t33-127.6q0-67.9-34.2-127.5q62-59.1 81-136.7l7.4-37.6q0.9-1 0.9-3.9q0-5.4-8.3-7.8l-29.8-9.3q-65.4-18.6-99.8-69.6t-34.4-106.2q0-20.5 4.4-41.5l7.3-31.7q3.4-7.8-7.3-12.2q-16.6-6.9-47.4-13.7t-60.1-6.8q-28.3 0-58.1 6.8t-61.7 21.2t-62.3 41.5t-52.2 63.8q-64.5-23.5-123.6-23.5q-110.3 0-196 68.4t-110.1 174.8q-86.4 20-142.4 90.6t-55.9 160.9z m421.9 511.7q0 12.7 7.3 24.1t23 15.9q8.3 1.5 15.6 1.5q32.2 0 40-32.7l120.2-458q4.8-18.6-3.5-34t-25.8-20.2q-18.1-5.4-34 3.1t-20.7 25.7l-120.6 460.4q-1.5 6.9-1.5 14.2z m216.8-157.3q0 12.7 7.6 24t24.1 16.1q2.5 0 8.3 0.7t8.8 0.8q29.3 0 37.1-32.8l78.2-300.7q4.9-19.1-3.9-34.2t-26.4-20q-18.1-5.4-33.5 2.9t-20.2 25.9l-78.1 303.2q-2 10.7-2 14.1z m64.9-777.8q25.9-44.4 69.1-67.9t91.6-23.4q9.3 0 13.7 0.5v16.6q0 75.2 41 142.1t113.3 102.5q-14.2 31.8-41.5 55.7q-71.8-61.5-167.5-61.5h-16.6q-22-97.7-103.1-164.6z"/></svg>