<svg height="1000" width="1121.6" xmlns="http://www.w3.org/2000/svg"><path d="m-0.5 600.1q0 51.3 19.5 97.9t53 80.8t79.9 55.2t97.6 23.4q9.3 0 9.3-8.8v-69.8q0-8.8-9.3-8.8q-66.4-3.4-113.5-53.4t-47.1-116.5t43.9-114.7t109.4-53.8l27.8-3.4q7.8 0 7.8-7.8l3.9-27.8q8.8-85.5 72.8-142.4t149.9-56.8q85 0 148.7 56.4t73 140.8l3.4 29.8q0 9.8 9.3 9.8h84.4q69.4 0 119.2 49.8t49.8 120.1q0 66.4-46.4 116.5t-112.8 53.4q-9.8 0-9.8 8.8v69.8q0 8.8 9.8 8.8q104.5-4.9 176.8-79.1t72.2-178.2q0-48.8-21.9-104q59.5-78.1 59.5-171.4q0-73.7-36.8-137t-99.9-100.1t-136.7-36.8q-119.6 0-201.2 86.9q-67.9-33.7-140.6-33.7q-110.8 0-196.3 68.9t-109.4 176.2q-88.3 20.5-143.8 89.6t-55.4 161.4z m280.8 351.6q0 13.1 7.5 25.1t25.2 17.8q8.8 4.4 19.3 3.7t21-10.3t14.4-25.1l14.6-52.7q4.9-19.6-4.1-35.2t-27.6-19q-16.6-5.4-32.7 3.6t-21.5 26.1l-14.7 54.2q-1.4 6.9-1.4 11.8z m68.3-248.6q0.5 15.2 8.8 27.1t24.9 14.4q13.2 2.5 15.6 2.5q29.3 0 39.6-34.2l14.6-52.3q4.9-18-4.1-34.4t-27.6-21.7q-17.6-4.9-33.2 4.1t-21 27.1l-15.6 54.7q-2 9.8-2 12.7z m64.5 411.6q0 13.7 8 25.9t25.2 17.1q10.7 2.5 14.6 2.5q6.9 0 19.6-5.4q13.2-6.4 20-28.8l15.6-52.8q4.9-19.5-4.4-35.4t-27.3-19.2q-17.1-5.4-33.5 3.6t-21.7 26.6l-14.6 54.2q-1.5 6.9-1.5 11.7z m68.8-250q0 13.2 8.6 25.7t25.6 17.3q17.6 5.4 33-2.4t21.2-29.3l14.7-52.8q5.3-19.5-3.7-34.6t-27.6-18.6q-17.1-5.8-33.2 3.2t-21.5 26.6l-14.6 54.2q-2.5 8.8-2.5 10.7z m148.5 90.9q-1 12.2 7.1 24.1t24.1 17.4l13.7 1.4q8.8 0.5 19.5-3.9q16.1-6.3 21.5-28.3l15.1-54.7q5.4-18-3.9-33.4t-26.8-20.8q-19.5-4.9-34.7 4.4t-18.5 27.8l-15.2 52.3q0 1.5-1 6.1t-0.9 7.6z m70.3-250q0 13.6 8.5 25.8t25.7 15.7q0.5 0 5.3 0.7t7.4 0.7q34.1 0 42.4-32.2l14.7-53.7q4.9-19.5-4.4-35.2t-27.8-19q-18.1-5.4-33.5 3.7t-20.2 27.5l-15.7 53.3q-2.4 10.7-2.4 12.7z m18.1-515.7q52.2-50.3 127.4-50.3q76.2 0 129.9 54.5t53.7 130.6q0 49.8-24.9 92.3q-75.2-75.2-181.7-75.2h-17q-19.6-85.9-87.4-151.9z"/></svg>