<svg height="1000" width="1121.6" xmlns="http://www.w3.org/2000/svg"><path d="m-2.4 598.6q0 104 72.7 179t177.3 79.8q9.7 0 9.7-8.8v-69.8q0-8.8-9.7-8.8q-66.9-3.9-114.1-53.7t-47.1-117.7q0-64.9 44.5-112.8t109.8-55.6l27.4-2q9.7 0 9.7-9.3l3.9-28.3q8.3-84.4 71.8-141.6t148.9-57.1q85 0 148.7 57.1t72.5 141.6l3.9 29.8q0 9.8 9.3 9.8h84q70.8 0 121.1 49.5t50.3 118.9q0 67.9-47.1 117.7t-114 53.7q-10.3 0-10.3 8.8v69.8q0 8.8 10.3 8.8q104.4-3.4 177-78.8t72.5-180q0-55.6-22.5-104.5q61.5-75.2 61.5-172.8q0-74.2-36.8-137.5t-99.9-99.8t-136.7-36.6q-121.1 0-202.6 90.3q-63-33.7-141.2-33.7q-110.3 0-196 68.6t-110.1 175.1q-86.4 20.5-142.6 90.5t-56.1 160.4z m333 214.4q0 17.1 12.7 29.8q13.1 13.2 30.2 13.2q18.1 0 30.6-12.2t12.4-30.8t-12.2-30.8t-30.8-12.2t-30.7 12.2t-12.2 30.8z m0 189q0 18.5 12.7 30.2q12.7 12.7 30.2 12.7q18.6 0 30.8-12.2t12.2-30.7t-12.4-31.5t-30.6-13t-30.5 13t-12.4 31.5z m166-90.4q0 18.1 13.2 32t30.2 13.9q18.1 0 31.5-13.7t13.5-32.2q0-17.1-13.5-30t-31.5-12.9q-17.1 0-30.2 12.9t-13.2 30z m0-187q0 17.6 12.7 30.3t30.7 12.7q18.6 0 31.8-12.5t13.2-30.5t-13.2-31t-31.8-12.9q-17.5 0-30.5 12.9t-12.9 31z m0 378.4q0 18.1 12.9 31.3t30.5 13.2q18.6 0 31.8-13.2t13.2-31.3q0-17.1-13.5-30t-31.5-12.9q-17.1 0-30.2 12.9t-13.2 30z m168.4-290q0 15.6 13.2 29.8q13.2 13.2 31.3 13.2t30.5-12.2t12.4-30.8t-12.2-30.8t-30.7-12.2t-31.5 12.2t-13 30.8z m0 189q0 17 13.2 30.2q12.7 12.7 31.3 12.7t30.7-12.2t12.2-30.7t-12.4-31.5t-30.5-13t-31.3 13.2t-13.2 31.3z m51.3-813.5q52.7-52.8 129.9-52.8q76.7 0 130.1 54.2t53.5 131.4q0 45.9-26.4 95.7q-75.2-75.2-182.6-75.2h-16.1q-23-90.8-88.4-153.3z"/></svg>