<svg height="1000" width="1244.1" xmlns="http://www.w3.org/2000/svg"><path d="m-1.5 811.5q0 19.1 13.7 31.3q14.2 14.1 31.7 14.1h306.7q20.5 0 35.9 14.7t15.4 35.6q0 20-15.7 35.4t-35.6 15.4q-19.5 0-35.2-15.6q-14.6-13.7-32.7-13.7t-30.7 13.2t-12.7 31.7q0 18.1 13.1 31.3q40.6 40.5 98.2 40.5t98.1-40.3t40.6-97.9q0-58.1-40.6-99.1t-98.1-41h-306.7q-18.5 0-31.9 13.2t-13.5 31.2z m0-156.7q0 18.1 13.7 30.3q11.7 12.7 31.7 12.7h572.8q57.6 0 98.1-40.6t40.6-98.1t-40.6-97.9t-98.1-40.3q-59.6 0-98.6 39.1q-11.8 13.1-11.8 32.7q0 18.5 12 30.5t31 12q19.5 0 31.8-11.8q14.6-14.6 35.6-14.6q20 0 35.2 14.6t15.1 35.7t-15.1 36.1t-35.2 15.2h-572.8q-18.5 0-31.9 13.1t-13.5 31.3z m138.2-122.1q0 6.4 8.3 6.4h74.7q6.4 0 11.3-7.4q17.5-42.4 54.4-70.3t82.8-31.2l27.3-3.4q10.3 0 10.3-9.8l3.4-25.9q8.3-84.5 71.5-141.3t148.7-56.9t148.7 56.4t72.5 141.8l3.4 29.8q0 9.3 9.3 9.3h84.9q70.4 0 119.9 49.3t49.6 118.6q0 69.9-49.6 119.4t-119.9 49.6h-359.8q-9.3 0-9.3 9.3v71.3q0 9.2 9.3 9.2h359.8q69.9 0 129.2-34.6t93.7-94.3t34.5-129.9q0-57.6-22-105.4q59.1-77.7 59.1-173.4q0-55.6-21.8-106.2t-58.3-86.9t-87.2-57.8t-105.7-21.5q-120.1 0-201.6 90.3q-61.1-31.7-138.7-31.7q-110.4 0-194.8 67.8t-107.5 174.8q-66.4 15.7-117.9 64t-71.5 113.8v1.9q-1 2.5-1 4.9z m704.1-345.2q56.2-53.2 128.9-53.2q76.2 0 130.9 54.7t54.7 130.3q0 47.4-26.4 96.2q-74.7-74.7-180.7-74.7h-17.5q-18.1-83.5-89.9-153.3z"/></svg>