<svg height="1000" width="1121.6" xmlns="http://www.w3.org/2000/svg"><path d="m-0.5 598.6q0 104 72.5 178.7t177 80.1q9.3 0 9.3-9.3v-69.3q0-9.3-9.3-9.3q-66.9-3.4-113.7-53.2t-46.9-117.7q0-64.9 43.9-112.8t109.4-55.6l27.3-3.9q9.8 0 9.8-9.3l3.9-26.4q8.3-84.4 71.8-141.3t148.9-56.9q85 0 148.9 57.1t72.8 141.1l2.9 30.3q0 9.3 9.8 9.3h84q70.8 0 120.8 49.3t50.1 119.1q0 67.9-46.9 117.7t-113.8 53.2q-10.2 0-10.2 9.3v69.3q0 9.3 10.2 9.3q68.4-2.4 125.8-37.6t90.3-94t33-127.2q0-57.6-22.5-104.5q61.5-74.7 61.5-172.8q0-73.7-36.8-136.7t-99.9-99.9t-136.7-36.8q-121.6 0-202.2 90.3q-63.9-34.2-141.1-34.2q-110.3 0-195.8 68.6t-109.8 175.1q-86 20.5-142.1 90.5t-56.2 160.4z m279.3 363.3q6.8 17.1 24.4 23.9q15.6 7.9 32.5 1.3t23.2-23.2q6.8-17.1 0.5-34t-23-24.6q-15.6-6.4-32 0.5t-24.1 22.4q-8.3 13.7-1.5 33.7z m33.2-147.4q0 12.2 8.1 23.9t24.1 16.1q17.6 5.4 33.5-2.9t22.2-28.8l51.8-162.2q5.8-19-3.9-34.6t-28.9-19.6q-17-5.3-32.4 3.2t-20.8 26.1l-52.2 165.6q0 1.4-0.5 4.1t-0.7 4.9t-0.3 4.2z m97.2 291.9q0 6.9 2.4 15.2q6.9 17.1 24.4 23.4q6.4 3.9 17.1 3.9q4.9 0 15.7-2.9q17-6.4 24.6-23.7t-0.2-34.4t-23.5-23.9t-32.2-0.5q-15.1 6.3-21.7 18.8t-6.6 24.1z m38.6-139.1q0 13.7 7.8 24.9t24.9 14.6q1.4 0 5.8 1t6.9 1q33.7-2.5 42-32.2l91.3-316q5.3-19-3-33.9t-25.8-20.3q-18.1-5.3-33.7 3.2t-21 26.1l-93.8 316q0 1.9-0.5 5.1t-0.7 5.8t-0.2 4.7z m178.7-21q0 5.8 2.9 16.6q6.3 16.6 23.9 22.9q7.3 3.5 18.6 3.5q9.3 0 15.1-3q17.6-6.8 23.9-22.4q6.4-17.1 0-33.7t-21.9-24.9q-17.1-6.4-34 0.5t-24.6 22.4q-3.9 8.3-3.9 18.1z m37.6-132.3q0 27.8 32.2 39q10.7 3 15.6 3q9.8 0 17.6-4.4q13.7-6.9 21-28.8l51.3-162.2q5.8-18-3.2-33.4t-26.6-20.8q-18.1-5.3-33.2 3.2t-21 26.1l-51.3 163.1q-2.4 13.2-2.4 15.2z m53.7-625.5q53.7-51.8 128.9-51.8q76.2 0 130.1 54.2t54 130.4q0 48.3-26.9 95.7q-76.7-76.7-182.1-76.7h-16.6q-23.9-90.3-87.4-151.8z"/></svg>