<svg height="1000" width="1115.7" xmlns="http://www.w3.org/2000/svg"><path d="m-140.6 808.6q0 17.6 13.2 29.8t32.2 12.2h969.2q18.6 0 31.5-12.2t13-29.8q0-19-12.7-32t-31.8-12.9h-969.2q-18.6 0-32 13.2t-13.4 31.7z m135.7-162.1q0 18.5 13.7 30.7q10.7 14.2 30.8 14.2h969.2q18.1 0 30.3-13.2t12.2-31.7q0-18.1-12.2-30.3t-30.3-12.2h-969.2q-18.6 0-31.5 12.2t-13 30.3z m7.8-126v-2.4q-3.4 11.7 6.4 11.7h75.2q4.4 0 9.7-7.8q18.6-40.6 55.5-66.4t80.8-29.3l27.8-3.9q9.8 0 9.8-9.3l2.9-25.9q8.3-84 71-140.4t147.7-56.4q84 0 147 55.7t71.8 139.2l3.4 29.7q0 9.3 10.8 9.3h82.5q50.3 0 91.3 26.9t61 70.8q5.4 7.8 11.3 7.8h73.7q9.3 0 7.8-11.7q-17.1-43.5-23.9-55.2q56.6-50.8 78.1-133.8l8.8-34.2q1.9-4.9-0.8-8.3t-6.1-3.4l-32.2-11.2q-69.8-20-106.2-82.5t-19.3-133.3l6.9-30.3q3.9-7.3-6.9-12.2l-43.9-12.2q-85.5-21-167.5 13.6t-128.4 110.4q-62-23.9-119.2-23.9q-108.4 0-193.1 68.3t-109.1 174.3q-65.9 15.7-115.5 63t-69.1 113.3z m82.5 446.8q0 18.5 13.7 30.7q13.2 14.2 30.8 14.2h971.2q18 0 30.7-13.2t12.7-31.7q0-18.1-12.7-30.3t-30.7-12.2h-971.2q-18.6 0-31.5 12.2t-13 30.3z m599.2-795.4q27.3-44.9 73.5-69.4t97.4-19.5q-5.4 81.6 36.6 152.6t115.7 105.2q-11.7 27.4-39 55.7q-71.8-59.1-163.6-59.1h-16.6q-24.9-102.5-104-165.5z"/></svg>