<svg height="1000" width="1138.2" xmlns="http://www.w3.org/2000/svg"><path d="m-0.5 599.6q0 104 72.5 178.7t177 79.6q8.8 0 8.8-8.8v-71.3q0-9.2-8.8-9.2q-67.8-5.4-114.2-54t-46.4-115q0-65.4 44.2-114t109.1-54l27.3-3.9q9.8 0 9.8-8.8l3.9-26.8q8.3-84.5 71.5-141.4t148.7-56.9q85 0 148.5 56.7t72.2 141.6l3.9 30.3q0 9.2 9.3 9.2h84q70.8 0 120.9 49.4t50 118.6q0 66.4-46.4 115t-114.2 54q-10.3 0-10.3 9.2v71.3q0 8.8 10.3 8.8q104-3.4 176-78.6t72-179.7q0-69.8-35.6-128.9q62.5-56.6 80.5-134.3l7.8-37.6q0.5-0.5 0.5-3.4q0-5.8-8.3-8.3l-30.2-8.8q-44.5-12.7-75.7-42.9t-44.5-64.3t-13.2-68.6q0-19 4.9-41l7.4-32.2q1.9-7.3-7.4-11.7l-41-12.7q-34.2-8.3-64.9-8.3q-28.3 0-58.1 6.8t-62 21.3t-62.5 41.5t-52.3 63.7q-55.2-23.5-121.6-23.5q-110.3 0-195.5 68.2t-109.6 174.5q-86 20.5-142.1 90.6t-56.2 159.9z m399.4 242.2q-3.9 11.2 7.4 11.2h112.3l-68.4 215.8h15.6l217.3-291q2.9-3.4 1.2-7t-7.1-3.7h-114.2l120.1-219.2q5.4-11.3-7.3-11.3h-153.3q-6.4 0-11.3 7.3z m301.8-664.1q25.9-44.4 69.1-67.8t90.1-23.5q9.7 0 14.1 1v16.1q0 75.2 40.6 142.1t112.7 102.1q-12.2 28.8-39 55.6q-71.8-61.5-167.5-61.5h-16.6q-22-97.2-103.5-164.1z"/></svg>