<svg height="1000" width="1138.2" xmlns="http://www.w3.org/2000/svg"><path d="m-0.5 599.6q0 104 72.5 178.7t177 79.6q8.8 0 8.8-8.8v-71.3q0-9.2-8.8-9.2q-67.8-5.4-114.2-54t-46.4-115q0-64.4 43.9-112.3t109.4-55.7l27.3-3.9q9.8 0 9.8-8.8l3.9-26.8q8.3-84.5 71.5-141.4t148.7-56.9q85 0 148.5 56.7t72.2 141.6l3.9 30.3q0 9.2 9.3 9.2h84q70.3 0 120.6 49.4t50.3 118.6q0 66.4-46.4 115t-114.2 54q-10.3 0-10.3 9.2v71.3q0 8.8 10.3 8.8q104-3.4 176-78.6t72-179.7q0-67.9-33.7-126.5q63.5-57.1 82.5-136.2v-6.8l9.8-41l-39.6-10.8q-63.4-19-98.6-70.5t-35.1-105.7q0-20.6 4.4-40.6l10.2-41.5l-44.4-13.2l-7.4-1.9q-36.6-7.3-64.4-7.3q-29.3 0-59.6 6.8t-62.7 21.5t-62.5 41.7t-52 64.2q-58.1-25.4-123.1-25.4q-110.3 0-195 68.4t-107.7 174.8q-87.9 20-144.3 89.9t-56.4 160.1z m281.3 352.5q0 11.8 7.8 23.2t23.4 17.4q17.1 5.8 33.2-2.7t21.5-26.6l14.6-55.2q5.4-16.1-3.6-32.2t-26.6-21.5q-18.1-4.9-34 4.4t-21.7 27.8l-12.7 51.8q-1.9 9.7-1.9 13.6z m67.3-246.5q0 9.7 4.9 18.5q5.9 13.2 28.3 20q19.1 4.9 34.2-3.1t21-27.1l14.2-53.7q5.4-18.1-3.4-33.5t-26.4-20.3q-19-4.8-34.9 3.7t-21.3 27.1l-13.6 52.7q-3 10.8-3 15.7z m65.5 409.1q0 13.2 8 25.7t23.7 17.3q8.8 2.5 11.7 2.5q6.9 0 19.6-5.4q15.6-6.4 22.4-28.8l15.6-54.7q5.4-16.6-3.6-32.7t-26.6-21.5q-19.1-4.9-34.9 4.1t-21.3 27.6l-13.2 52.8q-1.4 6.3-1.4 13.1z m69.3-248.5q0 11.7 7.8 23.2t23.9 17.3q17.6 5.4 33.3-2.9t20.9-27.3l14.2-54.2q5.4-16.6-3.2-32.5t-25.6-21.2q-19-4.9-35.4 4.3t-21.7 27.9l-12.7 52.2q0 1.5-0.5 4.2t-0.7 4.9t-0.3 4.1z m146 91.8q0 29.8 32.7 39.1q6.4 1.4 13.2 1.4q11.7 0 19-3.4q15.7-6.3 22.5-29.8l14.7-53.2q4.8-19.5-4.2-34.9t-27.6-19.3q-18-5.4-33.4 3.7t-20.8 26.6l-14.6 54.2q0 1.9-0.5 5.1t-0.7 5.9t-0.3 4.6z m71.8-251q0 12.2 8.3 24t24.4 16.6q11.2 2.4 12.2 2.4q6.8 0 19.5-5.4q16.2-6.3 23-28.8l14.1-54.2q4.9-17.1-4.3-32.7t-27.4-21q-17.1-5.4-33 3.7t-21.2 27.1l-13.2 55.1q-2.4 11.3-2.4 13.2z m2.4-529.3q24.9-43.9 69.1-68.3t94.5-24.4h10.7q-0.9 13.6-0.9 19.5q0 74.2 41 141.1t113.3 102.1q-16.6 32.7-41.1 57.1q-72.7-63-168.9-63h-16.6q-19.5-92.3-101.1-164.1z"/></svg>