<svg height="1000" width="1121.6" xmlns="http://www.w3.org/2000/svg"><path d="m-0.5 596.7q0 85.9 51.8 155t133.8 93.5l-33.2 86.4q-3.5 10.8 7.3 10.8h110.3l-59.5 212.9h15.1l212.4-286.2q2.9-3.4 0.7-7.3t-7.5-3.9h-113.3l128.9-243.2q5.8-11.2-7.3-11.2h-153.8q-7.9 0-10.3 7.3l-57.1 152.4q-55.7-14.2-92.6-61.1t-36.8-105.4q0-65.4 44.2-114t109.6-54.5l27.3-3.4q10.3 0 10.3-8.8l3.9-26.8q8.3-85 71.5-141.9t149.2-56.9q85.4 0 148.9 56.9t72.8 141.9l3.4 30.2q0 8.8 9.3 8.8h84.4q70.8 0 121.1 49.6t50.3 118.9q0 66.9-46.8 115.9t-114.8 54q-9.8 0-9.8 9.3v71.8q0 8.7 9.8 8.7q104-3.4 176.5-79.1t72.5-180.6q0-55.7-21.9-104q60-78.6 60-171.4q0-55.7-22-106.2t-58.5-87.2t-87.5-58.3t-105.9-21.7q-57.6 0-110.4 23.4t-90.8 65.4q-63.9-34.2-140.6-34.2q-110.8 0-196.3 68.2t-109.9 175.5q-86.4 20-142.5 90.3t-56.2 160.2z m425.8 514.1q0 13.7 8.3 26.7t23.9 15.8q0.5 0 5.4 0.8t7.3 0.7q33.7-2.5 42-31.8l15.1-55.1q4.9-17.1-4.6-33t-27.6-21.2q-17.1-4.9-32.9 4.4t-21.3 27.8l-13.7 52.2q-1.9 9.8-1.9 12.7z m69.8-248.5q0 11.7 8.1 23.4t24.1 17.6q17.1 5.9 32.8-2.7t21-27.6l15.6-54.2q4.9-19.5-4.2-35.1t-27.6-19.1q-17.5-5.3-33.6 3.7t-22 27.6l-12.7 53.2q0 1.5-0.5 4.2t-0.7 4.9t-0.3 4.1z m147 84.5q0 14.6 8.5 27.1t24.7 16.8q12.2 2.5 13.7 2.5q31.2 0 40.5-31.3l12.7-55.2q5.4-17.1-2.9-32.7t-25.9-21.5q-19.6-4.8-35.9 4.7t-19.8 27.6l-14.1 51.7q-1.5 5.9-1.5 10.3z m71.3-247.1q0 12.7 8.3 24.7t25.4 17.8q13.2 1.5 13.6 1.5q9.3 0 19.6-4.4q15.1-7.9 20.5-27.4l15.1-54.2q4.9-17.1-4.6-32.9t-27.6-21.3q-17.6-5.4-33.2 3.7t-21 27.6l-14.7 53.2q-1.4 6.8-1.4 11.7z m5.4-513.2q51.7-49.8 127.4-49.8q76.7 0 130.4 54t53.7 130.6q0 49.3-25.4 92.8q-77.2-75.2-181.7-75.2h-17q-24-90.9-87.4-152.4z"/></svg>