<svg height="1000" width="1244.1" xmlns="http://www.w3.org/2000/svg"><path d="m-4.9 813.5q0 18.5 13.7 31.2q13.2 13.2 31.7 13.2h299.3q20.6 0 35.9 14.9t15.4 35.4q0 21-15.4 36.1t-35.9 15.2q-20 0-35.6-15.7q-14.2-12.6-31.7-12.6q-18.6 0-31.5 12.9t-13 31q0 17.1 13.2 31.2q41 41.1 98.6 41.1t98.4-40.6t40.8-98.6q0-57.6-40.8-98.6t-98.4-41h-299.3q-18.5 0-32 13.4t-13.4 31.5z m0-157.2q0 17.5 13.7 30.2t31.7 12.7h565.5q57.6 0 98.3-40.5t40.8-98.2t-40.8-97.9t-98.3-40.2q-59.6 0-98.7 39.5q-11.7 12.2-11.7 31.8t12 31.2t30.5 11.7t32.2-11.7q14.7-14.6 35.7-14.6q20 0 35.1 14.6t15.2 35.6q0 20.6-15.2 35.7t-35.1 15.1h-565.5q-18.5 0-32 13.5t-13.4 31.5z m130.9-122.6q0 6.8 8.3 6.8h75.2q5.8 0 10.7-7.8q17.6-42.5 54.5-70.1t82.2-31l27.4-3.9q10.2 0 10.2-8.8l3.9-26.8q8.3-84.5 71.6-141.4t148.7-56.9t148.9 56.7t72.2 141.6l3.5 30.3q0 9.2 9.2 9.2h85q70.8 0 120.6 49.4t49.8 118.6t-50 119.2t-120.4 49.8h-359.9q-8.8 0-8.8 9.2v71.3q0 8.8 8.8 8.8h359.9q69.8 0 129.2-34.7t93.9-94.2t34.7-129.4q0-68.8-35.6-128.9q57.1-55.2 78.6-134.3l7.8-35.1q1-1 1-3.9q0-3.5-7.4-8.3l-31.2-10.8q-44.4-13.7-75.7-43.7t-44.7-63.9t-13.4-68.2q0-21 4.4-41l7.3-32.2q2-7.3-7.3-11.7l-41-12.7q-34.2-8.3-65-8.3q-28.8 0-58.5 6.8t-61.6 21.3t-61.7 41.5t-52 63.7q-55.2-23.5-120.6-23.5q-110.4 0-194.9 68.4t-107.4 174.3q-66.9 15.6-118.2 64t-70.8 114.7v1.5q-1.4 2.4-1.4 4.4z m689.4-358.9q24.4-43 67.4-65.7t88.9-22.7q10.7 0 16.1 0.5q-1 6.9-1 18.6q0 73.7 41 141.1t113.3 101.1q-12.2 29.3-39 53.7q-69.4-59.6-164.6-59.6h-17.1q-21-98.1-105-167z"/></svg>