<svg height="1000" width="1138.2" xmlns="http://www.w3.org/2000/svg"><path d="m-2.4 600.6q0 103.5 72.7 178.7t177.3 78.6q9.7 0 9.7-8.8v-69.8q0-8.8-9.7-8.8q-66.4-3.4-113.8-53.7t-47.4-116.2q0-66.4 44.5-115t109.8-54l27.9-3.4q9.7 0 9.7-9.3l3.4-26.3q8.3-86 71.8-143.3t149.4-57.4q85 0 149.2 57.1t73 141.6l3.9 29.8q0 9.8 8.8 9.8h84q70.8 0 121.3 50.3t50.6 120.1q0 43-21.5 81.3t-58.9 62.2t-81.3 26.4q-10.2 0-10.2 8.8v69.8q0 8.8 10.2 8.8q51.3-1.5 97.7-22.7t79.6-55.7t52.7-81.3t19.5-97.6q0-68.9-35.6-130.9q64.9-58.1 82.5-136.7l7.3-35.6q1-1 1-3.9q0-4.4-8.3-8.3l-29.3-9.3q-34.2-10.3-60.8-30.5t-42.2-45.2t-23.7-50.5t-8-50.1q-1.5-18.5 4.4-43l7.3-30.2q3.4-7.8-7.3-12.2l-41.6-12.7q-31.7-8.8-67.3-8.8q-28.4 0-58.4 6.8t-62 21.5t-62.3 42.2t-52.2 64.2q-63.5-23.9-122.1-23.9q-110.3 0-196.3 68.6t-110.3 175.6q-87.9 22.4-143.3 92.2t-55.4 160.7z m282.2 367.2q0 13.2 8.3 26.3t24.4 18.1q18.1 5.4 33.4-1.9t20.8-29.3l7.3-31.8q3.9-17.6-4.9-32.9t-26.8-20.8q-17.6-5.4-33.5 3.9t-20.7 27.8l-7.3 30.8q-1 2.9-1 9.8z m39.5-150.9q0 17.1 12.7 29.8q12.2 13.2 29.8 13.2q18.6 0 31.3-12.5t12.7-30.5t-12.7-30.5t-31.3-12.5q-18 0-30.3 12.2t-12.2 30.8z m31.8-118.7q-1 12.2 6.8 23.7t24.9 16.9q16.1 4.9 32.5-3.7t21.7-26.6l14.7-46.9q5.8-19-3.7-33.9t-28.6-20.3q-17.1-5.3-32.7 3.4t-21 25.9l-13.2 47.9q-1.4 13.2-1.4 13.6z m60 432.2q0 13.2 8.3 25.6t25.4 17.3q6.9 1.5 12.7 1.5q33.7 0 41.5-31.7l7.3-30.8q4.9-19.5-4.3-35.4t-27.9-19.3q-16.6-5.4-32.4 3.7t-21.3 26.6l-7.3 30.8q-2 8.7-2 11.7z m41-151.4q0 17.6 12.7 30.3t30.3 12.7q18.6 0 30.8-12.2t12.2-30.8q0-18.1-12.2-30.3t-30.8-12.2t-30.7 12.2t-12.3 30.3z m32.3-118.2q-1 11.8 7.1 24.5t23.6 15.6q18.1 4.9 33.2-3t21.5-29.2l13.7-46.9q5.4-17.1-3.7-32.7t-27.6-21q-17-5.4-33.2 4.1t-21.4 27.6l-11.8 46.9q-1.4 6.8-1.4 14.1z m144 111.9q0 13.1 7.8 25.1t24 16.8q2.4 0 7.3 1t7.3 1q31.7 0 39.6-34.2l7.3-31.2q5.4-16.6-3.7-32.7t-26.6-21.5q-19-4.9-34.9 4.1t-21.2 27.6l-5.4 30.8q0 0.9-0.7 5.8t-0.8 7.4z m38.6-153.9q0 18.1 12.7 29.8q11.7 12.7 30.3 12.7t30.7-12.2t12.2-30.3q0-18.5-12.2-30.7t-30.7-12.2t-30.8 12.2t-12.2 30.7z m31.7-120.6q0 13.2 8.6 25.2t25.6 16.8q1.5 0 6.1 1t7.1 1q8.3 0 19-4.9q16.2-8.3 21-27.3l13.2-46.9q4.9-17.6-3.9-33t-26.4-20.7q-18-5.4-33.4 2.9t-20.8 26.4l-14.6 47.3q0 1.5-0.7 5.7t-0.8 6.5z m3.4-523.4q25-45.4 68.2-69.8t89.6-23.9q7.3 0 15.6 1.4v16.6q-1 76.7 40.3 143.8t115.5 100.9q-15.7 31.2-41.6 57.6q-72.2-59.6-167.9-59.6h-16.1q-24.4-102.1-103.6-167z"/></svg>