<svg height="1000" width="1138.2" xmlns="http://www.w3.org/2000/svg"><path d="m0.5 598.6q0 86.5 51.7 154.6t134.3 93l-33.7 88.4q-3.4 10.7 7.4 10.7h110.3l-67.4 217.8h14.7l220.2-293q2.9-3.4 1.2-7.1t-7.1-3.6h-113.3l129-241.7q5.3-11.3-7.4-11.3h-154.3q-6.8 0-11.7 7.9l-55.6 149.9q-55.7-14.2-92.6-60.8t-36.8-104.8q0-64.9 44.1-112.8t109.7-55.6l27.3-3.9q10.3 0 10.3-9.3l3.9-26.4q8.3-84.4 71.5-141.6t148.7-57.1q84.9 0 148.9 57.4t72.8 141.3l3.9 29.8q0 9.8 8.8 9.8h84.4q70.8 0 121.1 49.5t50.3 118.9q0 66.4-46.9 115.3t-114.7 53.7q-9.8 0-9.8 9.7v70.8q0 9.3 9.8 9.3q104-3.4 176.5-78.8t72.5-180q0-67.8-34.2-127.4q60.6-58.1 79.1-136.7l9.3-35.7q0.5-0.5 0.5-3.4q0-6.3-7.8-8.3l-32.2-8.8q-45-13.2-76.2-43.7t-44.2-63.5t-12.4-65.6q0-21.5 5.3-44.5l5.9-31.7q1.9-7.8-7.3-12.2l-41.5-12.7q-36.7-7.3-64.5-7.3q-28.8-0.5-58.8 6.1t-61.8 21t-61.3 41t-51.5 62.7q-66.4-23.9-124-23.9q-110.4 0-195.8 68.6t-109.9 175.1q-86.4 20.5-142.6 90.5t-56.1 160.4z m425.8 513.7q0 12.2 8 24.4t23.7 17.1q12.2 2.5 14.2 2.5q7.3 0 19-5.4q16.1-7.8 22-27.4l14.6-54.7q4.9-17-4.1-32.9t-27.6-21.3q-17.1-4.8-33 4.4t-21.2 27.9l-13.7 52.2q0 1.5-1 6.1t-0.9 7.1z m69.8-247.6q0 33.7 31.7 39.1q11.3 2.5 14.2 2.5q29.3 0 40-32.8l15.7-53.2q4.8-17.1-4.4-32.9t-27.9-21.3q-17.5-5.4-33.4 3.7t-21.3 27.6l-13.1 52.7q-1.5 6.8-1.5 14.6z m146 87q1 13.1 9.3 25.1t24.9 17.8q12.7 3 17.5 3q26.4 0 36.7-35.2l12.7-53.2q5.3-18.1-3.2-34.2t-26.1-21.5q-19.6-4.9-35.4 4.4t-19.3 27.8l-15.2 53.8q0 1.9-0.9 6.1t-1 6.1z m61.5-775.9q25.9-43.5 69.8-67.2t92.3-23.6h10.8v16.6q0 49.8 17.5 96.6t53 86.5t83.8 63q-13.2 29.3-39.6 53.7q-71.3-61.1-167.5-61.1h-16.6q-21.9-97.6-103.5-164.5z m10.3 525.9q0 33.7 33.7 42.9q10.7 2 15.6 2q28.3 0 38.6-33.7l14.6-54.2q0.5-3.9 0.5-11.2q1-13.2-7.3-25.7t-25.4-17.3q-1 0-5.1-0.7t-6.6-0.8q-12.7 0-24.9 8.1t-17.1 24.6l-15.2 53.3q0 0.5-0.7 5.3t-0.7 7.4z"/></svg>