<svg height="1000" width="1115.7" xmlns="http://www.w3.org/2000/svg"><path d="m-2.9 600.6q0 51.3 19.5 97.9t53 80.6t79.3 54.9t97.2 23.4q9.3 0 9.3-8.8v-69.8q0-8.8-9.3-8.8q-67.9-4.9-114.3-53.7t-46.4-115.7q0-65.4 44.2-113.8t109.2-54.2l27.3-2.9q10.3 0 10.3-9.3l3.9-26.8q5.3-55.7 35.9-101.1t79.1-71.1t104.7-25.6q85 0 148.4 56.2t72.8 140.1l2.9 30.3q0 8.8 9.8 8.8h83.5q70.3 0 120.6 50t50.3 119.4q0 66.9-46.4 115.7t-114.3 53.7q-10.2 0-10.2 8.8v69.8q0 8.8 10.2 8.8q104.5-4.9 176.3-78.8t71.8-178q0-49.8-24.4-107.4q62-77.7 62-170.4q0-74.3-36.9-137.3t-99.6-99.6t-136.5-36.6q-123.5 0-201.1 90.3q-63.5-33.2-139.2-33.2q-109.9 0-195.3 68.6t-109.4 175.6q-87.4 20-142.8 89.8t-55.4 160.2z m398.4 240.7q-1.9 10.8 7.3 10.8h112.8l-68.8 217.2h15.1l217.8-290.5q2.9-3.4 1.5-7.1t-6.9-3.6h-114.2l119.6-220.7q5.8-11.3-7.3-11.3h-153.4q-5.8 0-10.7 7.4z m315.9-651.4q52.3-51.7 128.9-51.7t130.2 53.7t53.4 130.9q0 46.3-26.8 93.7q-75.7-72.7-179.7-72.7h-16.1q-23-92.8-89.9-153.9z"/></svg>