<svg height="1000" width="1127.0" xmlns="http://www.w3.org/2000/svg"><path d="m1.5 599.6q0 67.9 33.4 126.5t91.1 94t126.4 37.3q9.3 0 9.3-8.8v-69.8q0-9.3-9.3-9.3q-66.9-3.4-114.5-53.4t-47.6-116.5q0-65.9 44.7-114.7t110.1-54.2l27.4-3.9q9.7 0 9.7-8.8l3.9-26.9q8.3-85.9 72.1-143.8t149.6-57.8q85 0 149.2 57.6t73 142.1l3.9 30.2q0 8.8 8.8 8.8h84.9q70.3 0 120.9 50.6t50.5 120.8q0 66.4-47.6 116.5t-114 53.4q-9.8 0-9.8 9.3v69.8q0 8.8 9.8 8.8q68.9-1.9 126.2-37.3t90.4-94t32.9-126.5q0-57.6-21.5-105q63-77.6 63-175.3q0-74.7-36.8-137.9t-100.1-100.1t-137.5-36.9q-58.1 0-112.1 24.2t-93 66.7q-68.8-33.7-141.1-33.7q-110.8 0-196.8 68.6t-110.3 175.5q-87.9 22.5-143.6 92.8t-55.6 161.1z m278.3 368.2q0 13.2 8.3 26.3t24.4 18.1q18.1 5.4 33.4-1.9t20.8-29.3l7.3-31.8q3.9-17.6-4.9-32.9t-26.8-20.8q-17.6-5.4-33.5 3.9t-20.7 27.8l-7.3 30.8q-1 2.9-1 9.8z m39.5-150.9q0 17.1 12.7 29.8q12.2 13.2 29.8 13.2q18.6 0 31.3-12.5t12.7-30.5t-12.7-30.5t-31.3-12.5q-18 0-30.3 12.2t-12.2 30.8z m31.8-118.7q-1 12.2 6.8 23.7t24.9 16.9q16.1 4.9 32.5-3.7t21.7-26.6l14.7-46.9q5.8-19-3.7-33.9t-28.6-20.3q-17.1-5.3-32.7 3.4t-21 25.9l-13.2 47.9q-1.4 13.2-1.4 13.6z m60 432.2q0 13.2 8.3 25.6t25.4 17.3q6.9 1.5 12.7 1.5q33.7 0 41.5-31.7l7.3-30.8q4.9-19.5-4.3-35.4t-27.9-19.3q-16.6-5.4-32.4 3.7t-21.3 26.6l-7.3 30.8q-2 8.7-2 11.7z m41-151.4q0 17.6 12.7 30.3t30.3 12.7q18.6 0 30.8-12.2t12.2-30.8q0-18.1-12.2-30.3t-30.8-12.2t-30.7 12.2t-12.3 30.3z m32.3-118.2q-1 11.8 7.1 24.5t23.6 15.6q18.1 4.9 33.2-3t21.5-29.2l13.7-46.9q5.4-17.1-3.7-32.7t-27.6-21q-17-5.4-33.2 4.1t-21.4 27.6l-11.8 46.9q-1.4 6.8-1.4 14.1z m144 111.9q0 13.1 7.8 25.1t24 16.8q2.4 0 7.3 1t7.3 1q31.7 0 39.6-34.2l7.3-31.2q5.4-16.6-3.7-32.7t-26.6-21.5q-19-4.9-34.9 4.1t-21.2 27.6l-5.4 30.8q0 0.9-0.7 5.8t-0.8 7.4z m38.6-153.9q0 18.1 12.7 29.8q11.7 12.7 30.3 12.7t30.7-12.2t12.2-30.3q0-18.5-12.2-30.7t-30.7-12.2t-30.8 12.2t-12.2 30.7z m31.7-120.6q0 13.2 8.6 25.2t25.6 16.8q1.5 0 6.1 1t7.1 1q8.3 0 19-4.9q16.2-8.3 21-27.3l13.2-46.9q4.9-17.6-3.9-33t-26.4-20.7q-18-5.4-33.4 2.9t-20.8 26.4l-14.6 47.3q0 1.5-0.7 5.7t-0.8 6.5z m24-510.2q54.2-54.2 131.3-54.2q76.7 0 130.6 54.4t54 131.1q0 51.3-26.9 96.2q-75.2-75.2-184.1-75.2h-16.6q-21.4-90.8-88.3-152.3z"/></svg>