<svg height="1000" width="1244.1" xmlns="http://www.w3.org/2000/svg"><path d="m-71.3 814.9q0 18.6 13 30.8t32.4 12.2h490.3q18.5 0 30.7-12.2t12.2-30.8q0-19.5-12.2-31.9t-30.7-12.5h-490.3q-19.5 0-32.4 12.5t-13 31.9z m137.2-158.6q0 19 13.2 31.2q12.2 13.2 31.3 13.2h491.2q18 0 30.5-13t12.4-31.4q0-18.1-12.2-30.6t-30.7-12.4h-491.2q-18.6 0-31.5 12.4t-13 30.6z m54.2-122.1q0 7.3 9.3 7.3h74.2q6.8 0 11.7-7.3q17.6-42.5 54.2-70.3t82.1-31.3l28.3-3.9q9.7 0 9.7-8.8l3.5-26.8q8.3-85 71.7-141.9t149.5-56.9q85.4 0 148.2 56.2t73.4 141.1l3.9 30.3q0 8.8 8.8 8.8h84.5q70.8 0 120.4 49.8t49.5 120.1q0 68.8-50.3 119.4t-119.6 50.5h-359.9q-9.2 0-9.2 8.8v69.8q0 8.8 9.2 8.8h359.9q70.3 0 129.9-34.2t94.2-93.5t34.7-129.6q0-69.3-34.2-128.9q57.1-50.8 79.1-134.3l9.3-35.6q0.5-1 0.5-3.5q0-6.3-7.8-8.3l-32.3-11.2q-34.1-10.2-60.5-29.8t-41.8-43.7t-22.9-49t-7.6-49.4q0-21 5.4-45.4l7.3-31.7q3.4-7.3-7.3-11.7l-43-12.7q-34.1-8.3-64.4-8.3q-29.3 0-59.1 6.8t-61.5 21.2t-61.3 41.6t-51.5 63.7q-60.6-24.9-124-24.9q-110.4 0-195.4 68.6t-107.9 176q-67.8 15.6-118.9 63.7t-71 115v1.5q-1 1-1 3.9z m37.1 442.4q0 18.5 13.7 31.2q12.7 13.2 31.2 13.2h490.8q18.5 0 32-13.2t13.4-31.2t-13.4-30.6t-32-12.4h-490.8q-18.5 0-31.7 12.4t-13.2 30.6z m655.8-800.3q26.8-43 70.1-66.7t88.6-22.7q8.8 0 13.2 0.5v12.7q0 76.2 41.2 145.3t113.1 103.2q-13.2 30.3-40.1 55.7q-68.8-61.5-166-61.5h-16.6q-19.5-94.3-103.5-166.5z"/></svg>