<svg height="1000" width="1138.2" xmlns="http://www.w3.org/2000/svg"><path d="m-0.5 600.6q0 87.4 51.8 156.5t133.8 92q6.8 1.5 13.1-3.9l58.6-73.2q-68.3 0-118.4-50.8t-50-120.6q0-65.4 43.9-113.1t109.9-53.4l25.9-3.4q9.7 0 9.7-9.8l3.9-27.8q9.8-85 73.3-142.1t148.9-57.2q85 0 148.9 57.4t73.3 141.9l3.4 30.2q0 8.8 9.3 8.8h84.4q69.4 0 119.2 49.8t49.8 118.7q0 66.4-44 115.5t-107.9 54.4q-35.1 4.4-44.9 14.7l-122.1 151.3q-11.7 13.2-9.2 32.7q1.9 18.6 16.3 30.8t29.6 12.2q17.5 0 33.2-19.5l105.9-134.8q48.4-4.9 91.6-27.3t74.2-56.4t49.1-79.4t18-94.2q0-67.9-35.6-127q63.5-57.6 82.5-136.7v-4.9l10.3-40l-40.1-13.7q-44.9-13.2-76.2-43.4t-44.6-64t-13.5-68.4q0-20 4.4-41.5l9.8-40.5l-43.9-12.2q-0.5-0.5-1.5-1t-1.5-1q-0.9-0.4-2.2-0.9t-1.7-0.5q-34.2-8.3-64.9-8.3q-29.8 0.5-59.8 7.3t-62.5 21.5t-62.8 42t-52.2 64.4q-58.6-25.4-122.1-25.4q-110.3 0-195.8 68.4t-109.9 174.8q-88.3 21.5-143.5 91.1t-55.2 159.9z m192.9 416q0 10.3 3.4 16.1q6.8 17.1 22.5 23.9q17.1 7.9 34.6 1.5t24-22.9q7.8-17.1 0.7-35t-23.7-23.6q-17.1-7.8-34.4-1.3t-23.7 23.7q-3.4 7.3-3.4 17.6z m96.2-127.4v5.8q1.4 17.6 17.1 28.8q10.2 11.7 28.3 11.3t34.2-16.6l121.1-151.9q10.7-13.7 8.5-32.5t-15.9-30t-32.7-9.3t-29.8 17.6l-121.1 148.9q-9.7 11.3-9.7 27.9z m29.3 271.4q6.8 16.6 24.4 23.5q8.3 3.9 17.1 3.9q4.9 0 15.6-2.9q16.6-6.9 22.9-23q6.4-17.1 0.5-33.7t-22.9-24.9q-17.1-6.3-32.7 0.3t-23.5 22.7q-8.8 15.1-1.4 34.1z m83.5-138.6v4.4q1.9 17.5 16.3 30t29.1 12.4q17.1 0 31.2-17.5l225.1-279.3q11.3-13.2 9.8-32.3t-15.1-30.2q-15.7-11.3-34.5-9.5t-29.5 15.3l-222.7 279.3q-9.7 12.2-9.7 27.4z m182.1 57.6q0 8.8 3.9 17.1q6.4 17.6 24.9 24.4q17.6 6.8 31.7 1q17.1-6.9 24-24q7.8-17 1.4-33.2t-23.4-24.4q-17.1-6.3-33.9 0t-24.7 22q-3.9 9.3-3.9 17.1z m119.6-901.9q24.4-44.9 67.7-68.6t91.5-22.7q9.3 0 13.7 0.5v15.6q0 75.7 41.7 143.3t114 102.3q-19.5 36.7-41 58.2q-69.3-61.6-167.5-61.6h-17q-24-100.6-103.1-167z"/></svg>