<svg height="1000" width="1121.6" xmlns="http://www.w3.org/2000/svg"><path d="m0.5 600.6q0 51.3 19.5 97.9t53 80.6t79.6 54.9t97.4 23.4q8.8 0 8.8-8.8v-69.8q0-8.8-8.8-8.8q-67.9-4.9-114.3-53.7t-46.3-115.7q0-65.4 44.1-114t109.2-54l27.3-2.9q10.3 0 10.3-9.8l3.4-26.3q8.3-85 71.3-141.4t148.9-56.4q85.5 0 148.9 55.9t72.3 139.9l2.9 30.3q0 9.3 9.8 9.3h83.5q70.3 0 120.6 50t50.3 119.4q0 66.9-46.4 115.7t-114.3 53.7q-10.2 0-10.2 8.8v69.8q0 8.8 10.2 8.8q104.5-4.9 176.8-78.8t72.3-178q0-54.7-22.5-103.5q61.5-74.7 61.5-174.8q0-73.3-36.8-136.3t-99.9-99.8t-136.2-36.9q-121.6 0-202.2 90.3q-68.8-33.6-140.6-33.6q-110.3 0-195.6 68.6t-109.6 176q-85.9 20-142.1 90.1t-56.1 159.9z m285.6 347.6q0 31.3 33.7 40.6q16.1 5.3 32.7-3.2t21.5-26.1l78.1-298.4q4.9-17.1-4.6-32.7t-28.1-21q-17.1-5.3-32.7 3.7t-20.5 27.1l-78.1 296.9q-2 8.7-2 13.1z m135.3 159.2q0 9.3 4.4 19.1q7.8 16.1 26.3 22.4q2 0 5.2 0.5t5.8 0.7t4.7 0.3q33.7 0 39.5-34.2l120.1-455.1q5.4-17.1-3.4-32.7t-26.3-21q-19.1-5.3-35.2 3.7t-19.5 27.1l-120.1 455.6q-1.5 7.3-1.5 13.6z m216.3-159.6q0 12.2 8.3 24.4t23.4 16.6q5.4 1.4 11.8 1.4q13.1 0 25.3-7t16.6-23.7l78.2-298.4q5.8-16.1-3.4-32.2t-26.9-21.5q-19-5.3-34.4 3.7t-18.8 27.1l-78.2 296.9q-1.9 8.7-1.9 12.7z m80.1-755.9q52.2-52.3 128.9-52.3q76.2 0 129.9 53.3t53.7 129.4q0 48.8-26.9 96.2q-74.7-74.7-182.1-74.7h-16.1q-22-91.4-87.4-151.9z"/></svg>