<svg height="1000" width="1121.6" xmlns="http://www.w3.org/2000/svg"><path d="m-1 598.6q0 104 72.5 179t177.5 79.8q8.8 0 8.8-8.8v-71.3q0-9.7-8.8-9.7q-68.3-4.9-115-53.7t-46.6-115.3q0-65.9 44.4-114.5t109.9-53.9l27.3-3.4q9.8 0 9.8-9.8l3.4-25.9q8.3-84.5 71.8-141.6t149.4-57.1q85.5 0 148.9 56.9t72.8 141.8l2.9 29.8q0 9.3 9.8 9.3h83.5q70.8 0 121.1 49.5t50.3 118.9q0 66.4-46.4 115.3t-114.3 53.7q-10.7 0-10.7 9.7v71.3q0 8.8 10.7 8.8q104-3.4 176.5-78.8t72.6-180q0-57.6-22.5-104.5q61.5-74.7 61.5-174.8q0-73.7-36.8-136.9t-99.9-100.1t-136.7-36.9q-119.2 0-204.6 91.3q-64.5-32.7-138.7-32.7q-110.3 0-196 68.4t-109.6 175.3q-86.5 20.5-142.6 90.5t-56.2 160.4z m309.1 45.9q0 29.3 22.2 50.8t53 21.5t52-21t21.2-51.3q0-20-18.3-53.2t-34.4-52.2q-1.5-2-9.5-10.5t-11-12.5l-18.6 21q-21.4 23.4-39 54.9t-17.6 52.5z m155.8 207.6q0 49.3 35.9 85.4t85.6 36.1q50.3 0 86.5-36.1t36.1-85.4q0-21-12.2-50.3t-29.3-54.2q-36.1-46.4-67.4-77.7q-4.4-3.4-13.7-12.7l-30.2 30.3q-34.7 33.2-63 81.3t-28.3 83.3z m76.6-349.2q0 21 14.7 34.9t37.1 14q20 0 34.2-14t14.1-34.9q0-31.7-48.3-84l-13.2 13.7q-14.6 15.6-26.6 36.4t-12 33.9z m176.8-314.4q52.2-51.8 129.4-51.8q76.2 0 129.9 53.2t53.7 129.4q0 49.4-26.4 96.2q-78.1-75.2-182.6-75.2h-16.1q-22-91.8-87.9-151.8z"/></svg>