<svg height="1000" width="1115.7" xmlns="http://www.w3.org/2000/svg"><path d="m1.5 598.6q0 69.9 34.1 129.2t93.3 94t128.9 34.6h563q69.8 0 129.2-34.6t93.9-94t34.7-129.2q0-50.7-21.5-104q59.1-72.2 59.1-171.8q0-74.3-36.4-137t-99.1-99.4t-136.9-36.6q-116.7 0-201.7 90.8q-59.6-33.7-139.7-33.7q-109.8 0-194.3 67.9t-108.4 174.3q-87.4 19.6-142.8 89.4t-55.4 160.1z m88.8 0q0-64.9 43.5-112.3t109.4-55.1l35.6-1.5l3.4-37.6q10.8-84.5 73.5-141.4t146.7-56.9q56.2 0 104.8 25.9t79.3 71.6t36.2 100.8l5.3 39.1h92.8q68.8 0 118.7 49.5t49.8 117.9q0 70.3-49.6 120.6t-118.9 50.3h-563q-67.9 0-117.7-50.7t-49.8-120.2z m627-408.2q53.7-51.7 126.5-51.7q77.1 0 131.1 53.4t53.9 130.7q0 48.8-26.4 95.7q-74.7-74.7-181.6-74.7h-16.1q-21.5-87.5-87.4-153.4z"/></svg>