<svg height="1000" width="1121.6" xmlns="http://www.w3.org/2000/svg"><path d="m1 598.6q0 86.9 51.7 155.3t133.8 91.3l-33.7 87.4q-3.9 11.2 7.4 11.2h110.3l-54.2 218.3h14.7l206.5-293q2.9-3.4 0.7-7.3t-7.5-3.9h-113.3l128.9-240.2q5.4-11.3-7.3-11.3h-153.4q-6.8 0-11.7 7.4l-55.6 149.4q-55.7-13.7-92.1-59.6t-36.4-105q0-64.9 43.7-112.5t109.2-55.4l27.8-2q9.8 0 9.8-9.3l3.9-27.8q8.3-84.5 71.3-141.4t148.4-56.8q84.5 0 148 57.1t72.2 141.1l3.9 29.3q0 9.8 9.3 9.8h84q69.3 0 119.9 49.8t50.5 118.1q0 67.4-46.9 117t-113.3 53q-10.2 0-10.2 9.2v69.9q0 8.7 10.2 8.7q67.9-1.9 125-37.3t89.9-94t32.7-126.5q0-58.1-21.5-104.5q60.6-71.2 60.6-172.3q0-73.3-36.7-136.3t-99.3-99.6t-136-36.6q-121.1 0-201.7 90.3q-63-33.6-140.6-33.6q-109.9 0-195.3 68.1t-109.4 174.5q-85.9 20.1-142.1 90.1t-56.1 159.9z m413.1 514.7q0 12.7 7.5 23.9t23.7 16.1q1.5 0 4.2 0.5t4.8 0.7t4.2 0.3q32.7 0 41.5-31.3l126.5-462.9q4.8-18-3.5-33.4t-25.3-20.8q-18.1-5.3-34 3.2t-20.7 26.1l-127.5 463.4q-1.4 13.2-1.4 14.2z m215.8-158.2q0 12.7 7.8 24.4t24.9 17.1q1.5 0 4.1 0.5t4.9 0.7t4.2 0.2q9.3 0 18.5-3.9q15.2-6.3 21.5-28.8l85.5-304.7q4.9-18-3.9-33.4t-26.4-20.8q-18.1-5.3-33.5 3.2t-20.2 26.1l-85 306.7q-2.4 11.2-2.4 12.7z m87.4-765.6q52.7-49.9 128.9-49.9q75.7 0 129.1 53.3t53.5 128.9q0 50.3-25.9 96.2q-75.2-75.2-181.6-75.2h-16.6q-22-89.9-87.4-153.3z"/></svg>