<svg height="1000" width="1132.8" xmlns="http://www.w3.org/2000/svg"><path d="m-2.4 605.5q0 88.3 52.2 156.7t136.7 93.8q7.3 0.9 12.7-3.9l59.1-76.2q-69.8 0-120.4-50.1t-50.5-120.3q0-67.4 44.7-116.7t111.6-54.7l27.3-3.9q8.8 0 8.8-7.3l3.9-29.3q9.3-86 73.5-143.6t150.1-57.6q86.9 0 151.4 57.1t72.7 142.6l4 30.8q1.9 8.7 10.7 8.7h85.4q70.4 0 121.1 51.3t50.8 122.6q0 65.9-44.7 115t-109.6 55.4q-37.1 0-47.3 14.6l-113.8 125q-12.2 14.2-9.8 32.5t16.6 33q10.3 13.6 30.5 11.9t31.5-19.8l102.1-108.4q64.4-6.3 118.4-42.7t85.4-93.7t31.5-122.8q0-49.3-22.4-108.4q60.5-77.2 60.5-172.9q0-76.2-37.1-139.9t-101.1-100.6t-139.1-36.8q-122.6 0-203.1 88.8q-67.9-33.6-144.6-33.6q-111.8 0-197.7 69.3t-110.4 178.7q-89.3 20-145.5 91.1t-56.1 164.3z m197.7 390.6q0 10.2 2.9 16.6q6.4 16.6 23 22.9q17.6 7.9 35.4 1.3t23.7-23.7q7.8-17.1 1-34.9t-24-24.2q-17.6-6.3-34.2 0.2t-24.4 23.2q-3.4 7.4-3.4 18.6z m96.2-127.4q0 18 16.6 34.6q33.2 28.3 65.4-7.8l114.3-126.9q11.7-13.7 9.3-32t-16.6-29.6q-14.2-10.7-32.5-8.3t-30.5 15.2l-115.3 124q-10.7 15.6-10.7 30.8z m33.2 256.8q0 9.3 3.9 16.6q6.8 17.6 22 23.9q9.3 3.9 19 3.9q5.9 0 16.6-2.9q16.6-7.3 23-23.4q7.8-15.7 1-33.2t-23.5-24q-17.6-8.3-33.9-1.4t-25.2 24.9q-2.9 8.8-2.9 15.6z m86.9-124.5v6.8q1.5 18.6 17.1 31.3q11.2 14.1 31 12.4t31-19.8l219.7-255.8q12.3-14.2 10.3-33.2t-18.1-29.8q-13.6-11.2-31.7-9.8t-30.3 15.7l-219.2 256.3q-9.8 10.3-9.8 25.9z m189.5 43.4q-5.4 17.6 0 32.3q6.8 17.1 23.4 25.4q8.3 3.9 18.6 3.9q4.8 0 15.6-3q17.6-6.8 23.9-23.9q7.8-17.6 1.2-34.2t-23.2-22.9q-17.5-8.3-34.1-1.7t-25.4 24.1z m125-855.4q53.2-53.3 128.9-53.3q78.6 0 133.3 55t54.7 133.5q0 48.8-26.9 94.7q-76.2-76.1-184.6-76.1h-16.6q-19.5-88.9-88.8-153.8z"/></svg>