<svg height="1000" width="1138.2" xmlns="http://www.w3.org/2000/svg"><path d="m-0.5 599.1q0 104 72.8 179t177.2 79.8q9.3 0 9.3-8.8v-69.8q0-8.8-9.3-8.8q-66.9-3.9-114-53.7t-47.1-117.7q0-64.9 44.2-113t109.6-55.9l27.8-2q10.3 0 10.3-8.8l3.4-28.3q8.3-84.5 71.8-141.8t148.9-57.4q85 0 148.9 57.4t72.8 141.8l3.9 29.8q0 9.3 8.8 9.3h84.4q69.9 0 120.9 50t51 118.9q0 67.4-47.3 117.5t-114.3 53.9q-10.3 0-10.3 8.8v69.8q0 8.8 10.3 8.8q104-3.4 176.5-78.8t72.5-180q0-68.8-35.6-127.9q63-57.1 82.5-136.2l7.3-37.6q1-0.5 1-3.5q0-5.8-8.3-8.3l-29.3-9.2q-44.4-12.7-76.2-43.2t-45.1-64.3t-13.5-66.8q-1.4-17.6 4.4-43l7.4-31.8q3.4-7.8-7.4-12.7l-41-12.6q-35.1-7.9-65.9-7.9q-29.3 0-59.6 6.9t-62.5 21.2t-62.5 41.5t-52.2 63.7q-64.5-23.4-121.6-23.4q-110.4 0-196.1 68.6t-110.1 175.5q-86.4 20.1-142.5 90.4t-56.2 160.6z m289.6 356q0 13.2 8.5 25.6t25.6 17.3q18.1 5.4 33.5-2.2t20.7-29l74.7-305.7q4.9-19.5-4.3-35.1t-27.4-19.1q-17.1-5.3-32.9 3.5t-21.3 26.3l-75.7 307.1q-1.4 10.3-1.4 11.3z m135.7 160.1q0 12.2 8.1 24t23.2 16.1q8.7 1.9 12.7 1.9q34.1 0 42.4-30.7l117.2-465.4q4.9-19-3.6-33.9t-26.2-20.3q-18-5.3-34.4 3.7t-20.3 26.1l-117.6 464.9q0 0.9-0.8 6.1t-0.7 7.5z m216.8-155.7q0 27.8 32.7 38.5q10.8 3 15.6 3q8.8 0 18.1-3.9q15.6-6.4 20-30.3l75.2-305.7q4.9-18.5-3.9-33.7t-26.4-20.5q-18-5.3-34.1 3.5t-20 26.3l-74.8 307.1q-2.4 13.2-2.4 15.7z m61.5-783.7q24.9-45.4 68.1-69.1t91.6-22.7q8.8 0 13.7 0.5v15.6q-1 75.7 40.2 143.1t115.5 102.5q-17.6 35.6-41 55.7q-71.8-59.1-168-59.1h-16.1q-21.5-99.1-104-166.5z"/></svg>