<svg height="1000" width="781.3" xmlns="http://www.w3.org/2000/svg"><path d="m7.3 473.1q0-74.7 29.3-143t78.6-117.9t118-79.1t143.3-29.6h60q12.2 3.4 12.2 14.7l2 45.9q2.9 99.1 71.5 168.9t166.3 73.7l42.9 3.5q12.3 0 12.3 12.2v50.7q0.4 100.1-48.6 185.3t-133.8 134.8t-184.8 49.6q-76.2 0-144.6-29.3t-117.6-78.9t-78.2-117.9t-28.8-143.6z m95.2 0q0 79.1 40.1 143.8t102.5 99.4t131.4 34.7q45.4 0 91.5-17.8t86-49.9t68.3-81.7t36.9-108.9q-127.5-26.4-204.4-109.2t-88.6-194.5q-73.7 3.9-135 45.4t-95 105.2t-33.7 133.5z"/></svg>