<svg height="1000" width="1138.2" xmlns="http://www.w3.org/2000/svg"><path d="m1 598.6q0 104 72.5 178.7t177 80.1q9.8 0 9.8-9.3v-69.3q0-9.3-9.8-9.3q-66.9-3.4-113.8-53.2t-46.9-117.7q0-64.9 44-112.8t109.4-55.6l27.3-2q10.3 0 10.3-9.3l3.9-28.3q8.3-84.4 71.5-141.3t148.7-56.9q84.9 0 148.9 57.1t72.8 141.1l3.4 29.8q0 9.8 9.3 9.8h84.4q69.4 0 120.1 50t50.8 118.4q0 67.9-47.1 117.7t-114 53.2q-9.8 0-9.8 9.3v69.3q0 9.3 9.8 9.3q68.4-2.4 125.7-37.6t90.4-94t32.9-127.2q0-67.8-35.6-127.4q61.5-58.6 80.5-134.3l6.9-38.1q1.4-0.5 1.4-3.4q0-5.8-8.3-8.3l-30.2-8.8q-44.5-12.7-76.2-42.7t-45.2-63.2t-13.4-66.9q0-22.5 5.9-44.5l7.3-31.7q1.9-7.8-7.3-12.2l-41.5-12.7q-35.2-7.8-66-7.8q-28.3 0-58.1 6.8t-61.7 21t-62.3 41t-52.2 62.5q-63.5-23.9-121.6-23.9q-110.4 0-195.8 68.6t-109.9 175.1q-86.4 20.5-142.3 90.5t-55.9 160.4z m309.1 45.9q0 29.8 21.9 50.8t53.3 21t52-20.7t20.7-51.1q0-20-18.1-53.2t-33.6-51.3q-12.3-13.6-21-22.4l-18.6 21.5q-21 22.9-38.8 53.9t-17.8 51.5z m155.7 207.6q0 51.2 35.7 86.4t85.9 35.1q51.3 0 86.9-35.6t35.7-85.9q0-42.5-42-104.1q-34.7-45.4-66.9-77.6q-6.4-4.4-13.7-11.7l-12.2 11.7q-30.8 28.3-66.4 77.2q-18.6 25.8-30.8 54.2t-12.2 50.3z m76.7-347.2q0 20 14.9 34.2t36.4 14.1q20 0 34.1-14.1t14.2-34.2q0-33.2-48.3-84.5l-12.7 14.2q-14.7 15.6-26.7 36.3t-11.9 34z m159.6-329.1q27.4-44.5 69.6-67.2t89.1-22.7q9.3 0 14.2 1v15.6q0 75.2 41.3 142.4t114 102.8q-12.2 29.3-39.1 53.7q-72.3-59.6-167.5-59.6h-16.6q-23.9-102.5-105-166z"/></svg>