<svg height="1000" width="1138.2" xmlns="http://www.w3.org/2000/svg"><path d="m-0.5 599.6q0 104 72.5 178.7t177 79.6q9.3 0 9.3-8.8v-69.8q0-8.8-9.3-8.8q-66.9-3.4-113.7-53.2t-46.9-117.7q0-64.9 43.9-112.8t109.4-55.6l27.3-1.5q9.8 0 9.8-9.3l3.9-28.3q8.3-84.5 71.8-141.6t148.9-57.1q84.5 0 148.2 57.1t72.5 141.6l3.9 30.3q0 8.8 9.3 8.8h84q69.3 0 120.1 50t50.8 118.4q0 67.9-46.9 117.7t-113.8 53.2q-10.2 0-10.2 8.8v69.8q0 8.8 10.2 8.8q104-3.4 176.1-78.6t72-179.7q0-67.4-33.2-125.5q61-57.1 80.1-136.2l7.3-35.7q1.5-0.9 1.5-3.4q0-5.8-8.8-8.3l-28.8-8.8q-44.5-13.1-76-44.2t-44.6-64.9t-13.2-68.6q-0.5-19 3.9-41l7.3-30.3q2.4-6.8-7.3-11.2l-41.5-13.2q-32.7-9.8-68.4-9.8q-27.3 0-56.6 6.6t-60.8 21t-61.8 41.5t-52.2 63.7q-58.6-25.3-123.1-25.3q-110.3 0-195.8 68.3t-109.4 174.8q-86.4 20-142.5 90.1t-56.2 160.4z m285.2 366.2q6.8 16.6 23.9 23.5q15.1 7.8 32.2 1.2t23.5-23.2q7.8-17.1 1.2-33.7t-23.2-23q-15.6-7.8-32.2-0.9t-24.5 23.9q-7.8 12.2-0.9 32.2z m32.7-147.4q0 11.7 8 23.4t23.7 16.6q20 7.8 35.2-0.2t21-29.6l45.4-167q5.4-19.5-3.9-34.9t-27.9-19.3q-17-5.3-32.9 3.4t-21.3 26.4l-45.4 167.5q0 1.5-0.9 6.3t-1 7.4z m97.2 291.5q0 9.7 2.9 15.1q6.8 17.1 23.4 23.4q7.3 3.9 17.1 3.9q4.9 0 15.6-2.9q17.6-6.3 25.2-23.4t-0.3-34.2t-23.4-23.9t-32.2 0q-15.2 6.3-21.8 18.5t-6.5 23.5z m38.5-138.2q0 29.8 32.7 40.5q7.4 2.4 12.7 2.4q8.3 0 18.1-4.3q17.1-6.4 23.9-29.8l86-318.9q4.8-18.5-3.5-33.7t-25.8-20.5q-18.1-5.3-34 3.4t-20.7 26.4l-87.9 321.3q-1.5 6.8-1.5 13.2z m179.2-21.5q0 9.8 3.4 16.1q6.4 15.6 23 23q9.3 3.9 18.1 3.9q4.8 0 15.6-3q17.1-6.8 23.4-22.9q6.4-17.1 0.3-33t-21.8-23.7q-17.1-7.8-33.9-1.2t-24.7 24.2q-3.4 6.3-3.4 16.6z m37.1-133.3q0 12.2 8.3 23.7t24 16.3q13.1 1.5 14.1 1.5q31.3 0 39.6-31.7l45.9-165.1q4.9-18.5-3.9-33.7t-26.4-20.5q-18.1-5.3-33.2 3.2t-20.5 26.6l-45.9 165.5q-2 8.8-2 14.2z m34.2-638.2q24.4-44.9 67.6-68.3t91.6-23q8.8 0 13.2 1v16.1q0 76.2 40.7 143.3t113.1 101.3q-15.2 34.2-39.1 55.7q-68.8-61-169.4-61h-16.6q-20-97.7-101.1-165.1z"/></svg>