<svg height="1000" width="1244.1" xmlns="http://www.w3.org/2000/svg"><path d="m-64.9 812.5q0 19.5 14.1 31.3q13.2 13.6 31.8 13.6h497q18.1 0 30.5-13.2t12.5-31.7t-12.5-31.7t-30.5-13.2h-497q-18.6 0-32.3 13.4t-13.6 31.5z m137.7-157.7q0 18.1 13.6 30.3q12.7 12.7 31.3 12.7h498q18.6 0 30.8-12.3t12.2-30.7t-12.5-31.5t-30.5-12.9h-498q-18.6 0-31.8 12.9t-13.1 31.5z m59.5-121.6q0 5.9 9.8 5.9h74.2q6.8 0 11.7-7.4q17.6-42.4 55-70.3t82.7-31.2l28.3-3.9q8.8 0 8.8-9.3l3.9-26.4q8.3-84.4 72.1-141.6t149.6-57.1t149.4 56.6t72.3 142.1l3.9 29.8q0 9.8 8.8 9.8h84q71.3 0 121.3 49.3t50.1 119.1q0 69.4-50.1 119.2t-121.3 49.8h-359.9q-8.8 0-8.8 8.8v71.7q0 9.3 8.8 9.3h359.9q70.8 0 130.6-34.6t94.7-94.3t34.9-129.9q0-55.1-22.9-104.5q60.5-79.1 60.5-171.3q0-74.3-36.8-137.5t-100.1-99.9t-138-36.6q-119.1 0-200.2 86.9q-66.4-31.7-141.1-31.7q-110.8 0-196.3 68.4t-107.9 175.3q-68.3 15.6-119.4 62.7t-71 113z m31.8 440.4q0 17.6 14.1 30.3q12.7 12.7 31.3 12.7h497.5q18.6 0 31.5-12.2t13-30.8t-13.2-31.7t-31.3-13.2h-497.5q-18.6 0-32 13.4t-13.4 31.5z m677.2-785.1q52.7-50.8 128.4-50.8q77.2 0 131.6 54.2t54.5 130.9q0 48.8-25.9 92.2q-76.7-74.7-183.1-74.7h-16.6q-19.1-85.4-88.9-151.8z"/></svg>