<svg height="1000" width="1079.6" xmlns="http://www.w3.org/2000/svg"><path d="m-2.4 602.1q0 103 72.7 177.7t176.3 78.1q9.7 0 9.7-8.8v-69.3q0-9.3-9.7-9.3q-65.9-3.4-113.3-53t-47.4-115.4q0-65.5 44.2-114.1t109.2-53.9l27.3-3.9q10.3 0 10.3-9.3l3.9-25.9q7.8-85.4 70.8-143t148.9-57.7q84.5 0 148.2 57.2t73 141.1l3.4 30.3q0 9.2 9.3 9.2h83.5q70.3 0 120.6 50.3t50.3 119.7q0 65.9-47.1 115.4t-113.6 53q-10.2 0-10.2 9.3v69.3q0 8.8 10.2 8.8q104-3.4 176.3-77.9t72.3-177.9q0-69.9-35-129.2t-94.4-93.7t-129.4-34.5h-16.1q-25.9-104.5-109.9-171.1t-191.4-66.7q-109.9 0-195.3 68.4t-109.4 174.3q-87.9 22.5-143.1 92.1t-55.1 160.4z m282.2 365.7q0 13.2 8.3 26.3t24.4 18.1q18.1 5.4 33.4-1.9t20.8-29.3l7.3-31.8q3.9-17.6-4.9-32.9t-26.8-20.8q-17.6-5.4-33.5 3.9t-20.7 27.8l-7.3 30.8q-1 2.9-1 9.8z m39.5-150.9q0 17.1 12.7 29.8q12.2 13.2 29.8 13.2q18.6 0 31.3-12.5t12.7-30.5t-12.7-30.5t-31.3-12.5q-18 0-30.3 12.2t-12.2 30.8z m31.8-118.7q-1 12.2 6.8 23.7t24.9 16.9q16.1 4.9 32.5-3.7t21.7-26.6l14.7-46.9q5.8-19-3.7-33.9t-28.6-20.3q-17.1-5.3-32.7 3.4t-21 25.9l-13.2 47.9q-1.4 13.2-1.4 13.6z m60 432.2q0 13.2 8.3 25.6t25.4 17.3q6.9 1.5 12.7 1.5q33.7 0 41.5-31.7l7.3-30.8q4.9-19.5-4.3-35.4t-27.9-19.3q-16.6-5.4-32.4 3.7t-21.3 26.6l-7.3 30.8q-2 8.7-2 11.7z m41-151.4q0 17.6 12.7 30.3t30.3 12.7q18.6 0 30.8-12.2t12.2-30.8q0-18.1-12.2-30.3t-30.8-12.2t-30.7 12.2t-12.3 30.3z m32.3-118.2q-1 11.8 7.1 24.5t23.6 15.6q18.1 4.9 33.2-3t21.5-29.2l13.7-46.9q5.4-17.1-3.7-32.7t-27.6-21q-17-5.4-33.2 4.1t-21.4 27.6l-11.8 46.9q-1.4 6.8-1.4 14.1z m144 111.9q0 13.1 7.8 25.1t24 16.8q2.4 0 7.3 1t7.3 1q31.7 0 39.6-34.2l7.3-31.2q5.4-16.6-3.7-32.7t-26.6-21.5q-19-4.9-34.9 4.1t-21.2 27.6l-5.4 30.8q0 0.9-0.7 5.8t-0.8 7.4z m38.6-153.9q0 18.1 12.7 29.8q11.7 12.7 30.3 12.7t30.7-12.2t12.2-30.3q0-18.5-12.2-30.7t-30.7-12.2t-30.8 12.2t-12.2 30.7z m31.7-120.6q0 13.2 8.6 25.2t25.6 16.8q1.5 0 6.1 1t7.1 1q8.3 0 19-4.9q16.2-8.3 21-27.3l13.2-46.9q4.9-17.6-3.9-33t-26.4-20.7q-18-5.4-33.4 2.9t-20.8 26.4l-14.6 47.3q0 1.5-0.7 5.7t-0.8 6.5z"/></svg>