<svg height="1000" width="1082.5" xmlns="http://www.w3.org/2000/svg"><path d="m1 600.6q0 87.4 51 155.5t133.1 93q6.8 1.5 13.1-3.9l60.1-74.7q-69.3 0-118.7-49.8t-49.3-120.1q0-65.9 44-114.5t109.4-54l27.3-3.4q8.8 0 8.8-6.8l3.9-28.8q9.8-86 72.3-142.4t147.9-56.4q85.9 0 149.9 56.9t71.8 141.9l3.9 30.2q1.9 8.8 11.2 8.8h84q70.3 0 119.6 49.3t49.4 119.2q0 64.9-43.7 113.5t-107.7 56.4q-9.8 0-25.9 2.9q-14.6 1.5-21 11.8l-123.5 145.5q-11.3 14.1-8.6 32.7t16.4 29.8q8.3 9.7 29.8 9.7q20.5 0 31.7-18l109.9-127q97.1-9.8 164-84t66.9-173.3q0-52.7-20.2-100.6t-54.7-82.3t-82.1-54.9t-100.3-20.5h-16.6q-25.9-103.5-110.6-169.7t-193.6-66.2q-72.7 0-137 31.1t-108.1 86.4t-59.1 126.2q-87.9 19.5-143.3 89.6t-55.4 160.9z m176.2 417.5q0 4.8 3 15.6q6.8 16.6 22.9 22.9q17.1 7.9 34.7 1t23.9-23.4q7.8-17.1 1-33.7t-23.9-22.5q-17.6-8.3-33.7-1.4t-23.9 24.4q-4 8.3-4 17.1z m96.2-127v5.4q1.5 17.6 15.7 29.3q17.5 9.7 32.2 9.7q17.6 0 31.7-17l121.1-144.1q11.3-13.7 10.3-34.2q-2-16.6-14.4-27.8t-27.1-11.2q-3.9 0-6.9 0.5q-18.5 3.9-29.7 17.1l-122.6 144.5q-10.3 11.7-10.3 27.8z m40.1 245.6q0 9.3 3.9 16.6q6.3 16.6 22.9 24.4q8.3 3.9 17.6 3.9q9.8 0 16.1-3.9q17.6-6.8 23.9-21.4q7.9-17.1 1.3-34.7t-23.2-23.9q-17.1-7.9-34.9-1t-23.7 23.4q-3.9 7.3-3.9 16.6z m87.4-122.1v5.9q1.9 17.1 15.8 28.6t28.6 11.4q17.6 0 32.7-17l226.6-273q9.3-10.7 9.3-26.8v-6.4q-2-17.6-14.4-27.8t-27.6-10.3h-6.9q-18 1-28.8 16.1l-226.5 271q-8.8 12.7-8.8 28.3z m182.6 60.1q0 6.8 2.9 15.6q6.9 17.1 24 24.4q10.7 3 16.1 3q11.2 0 17.5-3.9q17.6-6.9 24-22q7.8-13.2 0.9-34.7q-6.3-16.1-22.9-22.9l-18.1-4.9q-8.3 1.5-17.1 3.9q-17 6.4-23.4 23q-3.9 9.2-3.9 18.5z"/></svg>