<svg height="1000" width="541.0" xmlns="http://www.w3.org/2000/svg"><path d="m-3.4 527.8q0 73.8 36.8 136.5t99.7 99.1t135.9 36.4q74.8 0 137.5-36.1t98.9-98.7t36.1-137.2q0-18.5-12.4-31.7t-30.6-13.2t-31.5 13.2t-13.4 31.7q0 76.7-53.9 130.6t-130.7 54q-75.6 0-128.9-54t-53.2-130.6q0-66.4 41.3-120.3t95.9-57.4l-20 19q-12.7 13.7-12.7 30.3q0 17.6 12.7 31.3q28.3 27.3 63 0l95.7-94.8q12.7-9.7 12.7-32.2q0-20-12.7-29.8l-95.7-96.7q-13.7-12.6-29.8-12.6q-19.5 0-32.7 12.9t-13.2 31.5q0 19 12.7 31.7l20 18.6q-97.6 17.1-162.6 93.5t-64.9 175z"/></svg>