<svg height="1000" width="1087.9" xmlns="http://www.w3.org/2000/svg"><path d="m-0.5 600.6q0-90.3 56.4-160.7t144.8-90.3q22.9-107.4 108.1-176.5t195.6-69.1q108.9 0 193.6 66.4t110.6 171.9h17.1q52.7 0 100.6 20.5t82 54.9t54.2 82.3t20 100.6q0 104.5-71.5 179.2t-175.6 78.1q-9.7 0-9.7-8.8v-69.8q0-8.8 9.7-8.8q66-5.4 112.8-54.4t46.9-115.5q0-69.8-50-120.1t-119.4-50.3h-84.5q-9.3 0-11.2-9.3l-3.9-29.8q-5.4-55.7-36.4-100.8t-79.8-70.8t-105.5-25.7q-85.9 0-149.2 56.9t-71.5 141.9l-3.4 28.3q0 7.3-8.3 7.3l-27.4 3.9q-65.9 5.4-110.1 53.7t-44.2 114.8q0 67.9 46.2 116.9t113 53q9.3 0 9.3 8.8v69.8q0 8.8-9.3 8.8q-51.3-2.4-97.6-23.4t-79.9-55.2t-53-80.8t-19.5-97.9z m282.2 352.5q0-2.4 1-6.8t1-5.9l14.2-53.7q5.3-17.6 20.7-26.6t33.5-3.7q17.5 5.4 26.8 20.8t3.9 33.4l-12.7 52.8q-10.2 34.2-39.5 34.2q-2 0-4.7-0.3t-5.8-0.7t-5.2-0.5q-16.6-4.9-24.9-17.8t-8.3-25.2z m68.9-251q0-1.9 0.7-5.8t0.8-4.9l15.6-54.7q4.9-15.1 16.6-23.2t24.4-8l13.2 1.4q17.6 5.4 26.6 20.8t3.6 33.4l-13.1 52.3q-5.4 21.5-21 30.5t-33.7 1.2q-17.1-4.9-25.4-17.6t-8.3-25.4z m64 414.1q0-2.4 0.9-6.6t1-6.1l14.7-51.7q4.8-18.6 20.7-28.1t33.9-4.2q17.6 5.4 26.7 21.3t3.6 33.9l-13.2 54.2q-8.3 31.7-41.5 31.7q-3.9 0-12.7-1.9q-17.1-2.9-25.6-15.9t-8.5-26.6z m69.8-248.5q0-6.9 1.4-13.2l14.7-53.7q5.4-17.6 21.2-26.6t34-3.7q17.5 4.9 26.3 20.3t3 33.9l-13.2 51.8q-9.8 35.1-37.1 35.1q-3.4 0-16.1-2.9q-17.1-3.4-25.7-15.4t-8.5-25.6z m146.9 87.4q0-5.4 1.5-12.7l14.7-51.8q5.3-18.5 21.2-28.1t33-4.6q18 5.4 27.5 21.3t4.7 32.9l-15.1 55.2q-7.9 31.7-41.6 31.7q-6.3 0-13.1-1.4q-15.7-3-24-15.9t-8.8-26.6z m71.8-248.1q0-2.4 2.5-13.6l15.6-53.8q2.9-16.6 15.1-24.6t25.4-7.1q3.4-0.5 12.7 1.5q17.1 3.9 26.9 20q9.2 13.2 3.9 33.7l-12.7 53.7q-10.3 33.7-39.6 33.7q-4.9 0-17.5-2.9q-16.2-4.9-24.2-16.4t-8.1-24.2z"/></svg>