<svg height="1000" width="1082.5" xmlns="http://www.w3.org/2000/svg"><path d="m-0.5 601.6q0-90.4 55.4-160.4t142.9-91.6q24.4-106.4 109.6-174.8t195.5-68.4q107.5 0 191.7 66.7t109.6 171.1h16.6q69.8 0 129.4 34.5t94.2 93.7t34.7 129.2q0 103.5-72.3 178.2t-175.7 78.1q-10.3 0-10.3-8.8v-69.3q0-9.3 10.3-9.3q66.4-3.4 113.5-53t47.1-115.9q0-69.4-50.3-119.7t-120.6-50.3h-84q-9.3 0-9.3-8.7l-3.9-30.3q-8.8-84.5-72.5-141.6t-148.2-57.2q-85.9 0-149.1 57.7t-71.6 143l-3.4 25.9q0 9.8-9.8 9.8l-27.3 3.4q-64.9 5.4-109.1 53.9t-44.2 114.1q0 66.4 47.1 115.9t113.5 53q8.8 0 8.8 9.3v69.3q0 8.8-8.8 8.8q-104.5-3.4-177-78.1t-72.5-178.2z m331.6 211.9q0-17.6 12.4-30.3t30.5-12.7t30.5 12.7t12.5 30.3q0 18.5-12.5 31.5t-30.5 12.9t-30.5-12.9t-12.4-31.5z m0 188.9q0-18.5 12.7-31.2q12.6-11.7 30.2-11.7q18.6 0 30.8 12.2t12.2 30.7t-12.2 30.8t-30.8 12.2t-30.7-12.2t-12.2-30.8z m166-88.3q0-18.1 13.2-32.3q12.6-12.7 29.7-12.7q18.6 0 31.8 13.5t13.2 31.5t-13.2 31t-31.8 12.9q-17.5 0-30.2-12.9t-12.7-31z m0-188.5q0-18.1 13.2-31.3q13.6-12.7 29.7-12.7q18.6 0 31.8 13t13.2 31t-13.2 30.5t-31.8 12.5q-17.5 0-30.2-12.5t-12.7-30.5z m0 378.9q0-17.6 13.2-31.7q12.6-12.7 29.7-12.7q18.6 0 31.8 13.1t13.2 31.3t-13.2 30.5t-31.8 12.5q-17.5 0-30.2-12.5t-12.7-30.5z m167.9-291q0-17.1 13.2-30.1t31.3-12.9t30.5 12.7t12.4 30.3q0 18.5-12.4 31.5t-30.5 12.9t-31.3-13.2t-13.2-31.2z m0 188.9q0-17 13.2-31.2q12.2-11.7 31.3-11.7q18 0 30.5 12.2t12.4 30.7t-12.4 30.8t-30.5 12.2q-18.6 0-31.5-12.4t-13-30.6z"/></svg>