<svg height="1000" width="1079.6" xmlns="http://www.w3.org/2000/svg"><path d="m-0.5 599.6q0-89.8 56.2-159.9t142.1-90.1q23.9-106.4 109.3-174.6t195.8-68.1q107.5 0 191.4 66.4t109.9 170.9h16.1q69.8 0 129.4 34t94.2 92.7t34.7 128.7q0 104.5-72 179.7t-176 78.6q-10.3 0-10.3-8.8v-69.3q0-9.3 10.3-9.3q66.9-3.4 113.7-53.2t46.9-117.7t-50.8-117.9t-120.1-50.1h-83.5q-9.7 0-9.7-8.7l-3.5-30.3q-8.3-84-72-141.1t-148.7-57.2q-85.4 0-148.9 56.9t-71.8 141.4l-3.4 28.3q0 9.3-9.8 9.3l-27.3 1.4q-64 3-108.6 52.3t-44.7 115.7q0 67.9 46.9 117.7t113.7 53.2q8.8 0 8.8 9.3v69.3q0 8.8-8.8 8.8q-104.5-4.9-177-79.6t-72.5-178.7z m308.6 45.9q0-19 19-51.5t35.7-52.5q16.6-18.6 20-22l18.6 21q20 21.5 37.3 53t17.4 52q0 30.8-21 51.3t-52.3 20.5q-30.7 0-52.7-21t-22-50.8z m155.3 207.5q0-21.5 12.4-49.8t30.5-53.2q14.2-20 34.7-43.9t30.8-33.7q10.7-9.8 13.2-12.2l12.7 12.2q29.3 25.8 66.4 76.1q18.5 25.9 30.7 54.2t12.2 50.3q0 50.3-35.4 85.7t-86.6 35.4q-50.3 0-86-35.1t-35.6-86z m76.6-346.7q0-32.7 50.8-83.4l12.2 13.1q36.6 45 36.6 70.3q0 20.1-14.4 34.5t-34.4 14.4q-21 0-35.9-14.4t-14.9-34.5z"/></svg>