<svg height="1000" width="418.5" xmlns="http://www.w3.org/2000/svg"><path d="m1 355.5q0-20.1 19.8-52.8t37.8-54.2q4.9-5.8 12.2-14.4t8.3-9.5l19 22.5q21.5 23.9 39.6 55.6t18.1 52.8q0 32.2-22.3 55.1t-54.4 23t-55.2-23t-22.9-55.1z m162.6 216.3q0-22.5 12.7-52.5t31.2-55.4q15.2-20.1 36.6-44.7t32.3-34.9q1.9-1 13.2-12.7l13.6 12.7q28.8 26.8 68.4 79.1q20 26.8 32.7 56.1t12.7 52.3q0 53.2-36.9 89.8t-90.5 36.6q-52.8 0-89.4-37.1t-36.6-89.3z m79.1-359.4q0-33.2 52.7-88.4l12.7 14.7q14.7 17.1 26.6 38.3t12 35.4q0 21.5-14.9 35.9t-36.4 14.4q-22.5 0-37.6-14.4t-15.1-35.9z"/></svg>