<svg height="1000" width="1079.6" xmlns="http://www.w3.org/2000/svg"><path d="m0.5 599.6q0 86.4 51.7 154.8t133.8 93.3l-34.1 87.4q-2.5 11.2 7.3 11.2h110.8l-54.2 196.8h14.7l206.5-272q2.9-3.4 1-7.1t-7.3-3.6h-113.3l128.9-241.7q4.9-10.8-7.3-10.8h-153.4q-7.3 0-11.7 7.3l-56.1 149.4q-55.7-14.1-92.1-60.5t-36.3-104.5q0-64.9 43.9-112.5t109.4-55.5l27.3-3.9q10.3 0 10.3-8.8l3.9-26.8q7.8-84.5 71-141.6t148.7-57.1q85 0 148.7 57.1t73 141.6l3.4 30.3q0 9.2 9.3 9.2h84.5q70.8 0 120.6 49.1t49.8 118.9q0 66.4-46.4 115t-114.3 53.5q-9.7 0-9.7 9.7v71.3q0 8.8 9.7 8.8q50.8-1.5 96.9-22.9t79.4-55.9t52.7-81.6t19.6-97.9q0-70.3-34.7-129.6t-94.3-93.8t-129.3-34.4h-17.1q-25.9-104-109.9-169.9t-191.9-65.9q-110.3 0-195.8 68.3t-109.4 174.8q-85.9 20-142.1 90.1t-56.1 160.4z m424.8 513.7q0 12.2 8 24.2t24.2 16.8q10.8 2.4 13.7 2.4q6.8 0 19.5-5.3q16.1-7.4 21.5-27.4l14.7-54.7q4.8-17.1-4.2-32.7t-27.6-21q-17.1-4.9-32.9 4.2t-21.3 27.6l-14.1 52.2q-1.5 13.2-1.5 13.7z m69.8-248.6q0 11.3 8.1 22.8t23.7 17.3q17.5 5.8 33.2-2.5t21-27.3l15.6-54.2q4.9-17.1-4.2-33t-27.6-21.2q-17.5-4.9-33.9 4.2t-21.7 27.1l-12.7 52.7q-1.5 13.2-1.5 14.1z m147 86q0 13.2 8.5 26.4t24.7 18q1.9 0 6.1 1t6.1 1q10.3 0 19.5-3.9q15.2-5.9 22-29.8l12.7-52.8q5.4-18-3.2-34.4t-26.1-21.7q-19.5-4.9-35.4 4.4t-19.3 27.8l-14.1 53.7q-1.5 4.4-1.5 10.3z m71.3-249.5q-0.5 12.2 7.5 24.4t25.2 19.5q5.9 2.9 14.2 2.9q7.3 0 17-4.3q16.2-7.9 23-29.8l15.1-53.7q1.5-10.3 1.5-11.3q0-13.2-8.6-25.6t-25.6-17.3q-1.9 0-5.8-1t-5.9-1q-13.2 0-25.2 8.1t-16.8 25.1l-14.6 52.7q-1 3.9-1 11.3z"/></svg>