<svg height="1000" width="1244.1" xmlns="http://www.w3.org/2000/svg"><path d="m-19.5 518.6q0-19.6 15.6-36.2q17.6-15.1 36.6-15.1h121.1q21 0 35.2 15.1t14.1 36.2q0 22.4-14.1 37.6t-35.2 15.1h-121.1q-21 0-36.6-15.9t-15.6-36.8z m173.3-415.6q0-21 13.7-35.6q17.6-15.2 36.6-15.2q20.5 0 35.6 15.2l85.5 85.9q14.6 17.1 14.6 36.2q0 21.9-14.1 36.6t-34.2 14.6q-19 0-36.6-15.1l-87.4-84.5q-13.7-16.6-13.7-38.1z m104 703.2q0-22 15.1-35.7q13.7-13.7 35.7-13.7h137.2l162.1-152.3q7.8-6.4 17.6 0l164.5 152.3h144.1q21 0 35.9 14.4t14.9 35q0 20.9-14.9 36.1t-35.9 15.1h-176.3q-7.8 0-15.1-3.9l-125.5-118.1l-124.5 118.1q-6.4 3.9-14.7 3.9h-169.4q-21 0-35.9-15.1t-14.9-36.1z m48.4-287.6q0 75.6 32.2 137.7q1.9 9.2 13.2 9.2h98.1q5.9 0 7.8-4.4t-1-9.7q-49.8-60.1-49.8-132.8q0-87.9 62.5-149.5t150.4-61.5q87.4 0 149.2 61.5t61.8 149.5q0 73.2-49.3 132.8q-3.5 5.3-1.8 9.7t8.1 4.4h99.1q10.3 0 12.2-9.2q32.3-60.1 32.3-137.7q0-63.5-24.9-121.1t-66.7-99.4t-99.4-66.4t-120.6-24.7q-63.4 0-121.3 24.7t-100.1 66.4t-67.1 99.4t-24.9 121.1z m261.7-466.4v-119.6q0-22.4 14.6-36.8t37.1-14.5q22 0 36.4 14.7t14.4 36.6v119.6q0 22.5-14.4 36.9t-36.4 14.4q-22.4 0-37.1-14.4t-14.6-36.9z m330.5 137.3q0-19.6 14.2-36.2l84.5-85.9q15.1-15.2 36.6-15.2t36.1 14.9t14.7 35.9q0 22.5-13.7 38.1l-87.9 84.5q-16.6 15.1-36.6 15.1q-21 0-34.4-14.4t-13.5-36.8z m136.3 329.1q0-21 13.9-36.2t34.4-15.1h122.6q21 0 36.1 15.1t15.1 36.2q0 21.4-15.1 37.1t-36.1 15.6h-122.6q-21 0-34.7-15.1t-13.6-37.6z"/></svg>