<svg height="1000" width="1244.1" xmlns="http://www.w3.org/2000/svg"><path d="m-10.7 524.4q0-21.5 15.6-35.1q13.7-13.7 35.6-13.7h120.1q21 0 35 13.9t13.9 34.9q0 21.5-13.9 36.6t-35 15.2h-120.1q-21 0-36.1-15.4t-15.1-36.4z m171.3-409.2q0-21.4 13.7-35.1q15.6-15.6 36.1-15.6q22.5 0 35.2 15.6l85 84.9q36.1 34.2 0 70.4q-14.7 14.6-34.2 14.6q-17.1 0-35.2-14.6l-86.9-85q-13.7-14.7-13.7-35.2z m102.6 691.4q0-20.5 15.6-36.1q14.2-14.2 35.2-14.2h167.4q8.3 0 14.7 4l122.6 115.7l124.5-115.7q5.3-4 15.1-4h171.9q21 0 35.9 14.7t14.9 35.6t-14.9 35.9t-35.9 14.9h-139.7l-163.1 148q-9.7 6.8-17.5 0l-160.7-148h-135.2q-21 0-35.9-14.9t-14.9-35.9z m48.8-282.2q0 76.7 30.8 136.7q3.9 8.3 13.6 8.3h97.2q6.4 0 7.8-3.9t-3.9-9.2q-46.4-58.2-46.4-131.9q0-85.9 61.6-146.2t148.4-60.3q85.9 0 147.2 60.5t61.3 146q0 74.2-45.9 131.9q-5.4 5.3-3.9 9.2t7.8 3.9h98.1q9.8 0 12.2-8.3q32.3-61 32.3-136.7q0-62-24.7-119.4t-66.1-98.8t-98.7-66.2t-119.6-24.7t-119.6 24.7t-98.7 66.2t-66.1 98.8t-24.7 119.4z m258.3-459v-121.1q0-21 14.9-35.9t35.9-14.8t35.9 14.8t14.9 35.9v121.1q0 21-14.9 35.9t-35.9 14.9t-35.9-14.9t-14.9-35.9z m327.2 134.8q0-22.5 13.1-35.2l85-84.9q12.7-15.6 35.2-15.6q21.4 0 35.9 14.8t14.4 35.9q0 21.5-13.7 35.2l-86.4 85q-18.1 14.6-36.2 14.6q-20.5 0-33.9-14.4t-13.4-35.4z m134.2 324.2q0-21 14-34.9t34.9-13.9h120.1q21 0 35.9 14.1t14.9 34.7q0 21-14.9 36.4t-35.9 15.4h-120.1q-21 0-34.9-15.2t-14-36.6z"/></svg>