<svg height="1000" width="1079.6" xmlns="http://www.w3.org/2000/svg"><path d="m1 599.6q0 86.4 51.7 154.8t134.3 93.3l-34.2 87.4q-2.4 11.2 7.4 11.2h110.8l-51.3 224.1h14.7l204.1-299.3q2.9-3.4 1-7.1t-7.4-3.6h-113.3l129-241.7q5.3-11.3-7.4-11.3h-153.8q-7.3 0-12.2 7.8l-55.6 149.4q-55.7-14.1-92.3-60.5t-36.7-104.5q0-64.9 44.2-112.8t109.7-55.6l27.3-3.5q10.3 0 10.3-9.2l3.4-26.4q8.3-84.5 71.5-141.6t148.7-57.1q84.9 0 148.7 57.1t73 141.6l3.4 30.3q0 8.8 9.3 8.8h83.9q70.8 0 121.1 49.5t50.3 118.9q0 66.4-46.6 115t-115 54q-9.8 0-9.8 9.2v71.3q0 8.8 9.8 8.8q104-3.4 176.5-78.6t72.5-179.7q0-70.3-34.6-129.6t-94.3-93.8t-129.9-34.4h-16.1q-25.8-103.5-110.3-169.7t-191.9-66.1q-110.4 0-195.8 68.3t-109.4 174.8q-86.4 20-142.6 90.1t-56.1 160.4z m424.3 505.9q0 30.7 30.8 40q1.4 0 5.8 0.7t6.9 0.8q13.1 0 25.6-7.6t16.8-25.1l117.2-452.7q4.9-18.5-3.4-33.7t-25.9-20.5q-13.2-1.4-13.7-1.4q-12.6 0-24.6 7.8t-16.4 23.4l-117.6 454.1q-1.5 6.4-1.5 14.2z m216.3-159.7q0 9.3 5.9 19.5q10.7 17.1 25.8 23q8.3 2.4 15.7 2.4q7.8 0 17.1-3.9q15.6-6.8 21.4-29.8l75.7-295.4q2-8.8 2-14.1q0-11.8-8.3-23.5t-24-16.6q-13.1-1.4-13.6-1.4q-13.2 0-24.4 7.5t-15.7 23.7l-75.6 296.9q0 1.9-1 5.8t-1 5.9z"/></svg>