<svg height="1000" width="725.1" xmlns="http://www.w3.org/2000/svg"><path d="m2.4 506.3q0 34.7 36.2 59.1q65.9 46.4 199.2 46.4q59.6 0 110.8-10.2q54.2-11.8 88.7-36.9t34.4-58.4q0-10.2-3.9-20.5q69.3-17 108.9-46.1t39.5-66.7q0-9.2-2.9-20q113.8-40.5 113.8-109.3q0-44-49.9-78.2q-97.6-64.9-286.1-64.9q-88.4 0-160.6 15.6q-77.7 16.1-126 50.1t-48.3 77.4q0 24.9 16.6 47.3q-59.6 33.7-59.6 82q0 37.2 37.1 66q-47.9 27.8-47.9 67.3z m20.1 150q0 36.6 44.9 57.3t113.3 20.8q69.3 0 114.7-20.8t45.4-57.3q0-13.7-8.8-23t-22.4-9.3q-11.3 0-20 7.8t-11.3 19.1q-9.7 7.8-36.6 14.4t-61 6.6q-55.2 0-89.4-15.6q7.8-7.9 8.6-20.1t-5.2-20.5q-7.8-10.7-20.2-13.2t-23.2 4.4q-28.8 19.6-28.8 49.4z m42.4-150q0.5-0.9 5.9-5.8q4.4-4.4 18.8-11.2t32-11.8l3.9-1.9q81 26.8 189.4 26.8q47.4 0 86-5.3l8.8 7.8q-4.4 7.8-21.5 16.6q-20 10.7-61.8 19t-88.6 8.3t-89.1-8.3t-62.8-19q-16.6-7.3-21-15.2z m3.9 280.8q0 31.7 35.9 48.8t89.1 17.1q54.2 0 90.6-17.1t36.4-48.8q0-12.7-9.3-22.5t-21.9-9.7q-23.5 0-30.8 23.9q-19.5 12.2-65 12.2q-40.5 0-64.4-12.2q-7.3-23.9-30.8-23.9q-12.7 0-21.2 9.3t-8.6 22.9z m6.4-414.1q0-2.9 5.4-9.2q12.2-15.2 47.3-29.3q95.7 51.2 263.2 51.2q85.5 0 160.7-15.6v2.9q0 7.9-8.8 15.2q-20.5 18.1-76.7 34.2q-60.5 18-151.4 18q-91.8 0-152.3-18q-58.1-16.1-77.6-34.2q-9.8-7.8-9.8-15.2z m43.5-129.3q0-8.8 11.7-19.6q22.4-21 89.3-40.5q71.3-21 171.4-21q100.6 0 172.9 21q67.3 19.5 89.3 40.5q11.3 11.3 11.3 19.6t-11.3 18.5q-22 21-89.3 41q-72.3 21-172.9 21q-100.1 0-171.4-21q-67.4-19.5-89.3-41q-11.7-10.2-11.7-18.5z"/></svg>