<svg height="1000" width="752.9" xmlns="http://www.w3.org/2000/svg"><path d="m2.9 482.9q0-76.2 30.1-145.7t80.3-119.9t119.6-79.8t145.5-29.6t145.8 29.6t119.8 79.8t80.1 119.6t29.8 146t-29.8 146t-80.1 119.4t-119.8 79.6t-145.8 29.5t-145.7-29.8t-119.9-80t-80.1-119.7t-29.8-145z m83 0q0 119.6 86.5 206.1q85.9 85.9 206 85.9q79.6 0 147.2-39.3t107-106.4t39.3-146.3q0-59.1-23.2-113.3t-62.8-93.5t-93.7-62.5t-113.8-23.2q-59.1 0-113 23.2t-93.3 62.5t-62.7 93.5t-23.5 113.3z m163.1-126.5q-2.4-5.3 0.5-8t7.8-0.3l116.2 43.5q4.9 2 10.8 0l115.2-43.5q4.9-2.4 7.8 0.3t1 8l-124 292.5q-1.5 4.9-5.9 4.9q-3.4 0-4.9-4.9z"/></svg>