<svg height="1000" width="752.9" xmlns="http://www.w3.org/2000/svg"><path d="m4.9 481.4q0-76.1 29.5-145.7t79.6-119.4t119.2-79.6t145.2-29.8q76.7 0 146 29.8t119.6 79.9t80.1 119.3t29.8 145.1q0 76.1-29.8 145.7t-80.1 119.9t-119.6 79.8t-145.5 29.6q-75.7 0-145-29.6t-119.4-79.6t-79.8-119.4t-29.8-146z m82 0q0 79.1 39.3 146.3t106.7 105.9t146 38.9q59.1 0 113.3-23.2t93.5-62.3t62.5-93t23.2-113q0-119.7-86.4-206.1q-87-85.9-206.6-85.9q-59.1 0-113 23.4t-93 62.5t-62.3 93.3t-23.2 113.2z m158.2 121.1l43.5-116.7q2.4-4.8 0-10.2l-43.5-114.8q-2.4-4.8 0.3-7.8t8-0.5l292.5 123.1q4.9 0.5 4.9 5.4q0 4.4-4.9 4.8l-292.5 125.5q-5.4 2-8-0.7t-0.3-8.1z"/></svg>