<svg height="1000" width="1079.6" xmlns="http://www.w3.org/2000/svg"><path d="m1 525.9q0-17.6 12.2-29.3t29.8-11.7h629.4q17.1 0 28.3 11.4t11.2 29.6q0 17.1-11.2 28.3t-28.3 11.2h-629.4q-17.6 0-29.8-11.2t-12.2-28.3z m126.4-150.9q0-17.1 12.2-28.8q11.8-11.7 28.9-11.7h629.8q16.6 0 28.4 11.7t11.7 28.8t-11.7 29.1t-28.4 11.9h-629.8q-17.1 0-29.1-11.9t-12-29.1z m83.5 298.8q0-16.6 12.7-28.3q11.3-11.2 28.8-11.2h629.9q17.6 0 29.3 11.2t11.7 28.3t-11.9 29.3t-29.1 12.2h-629.9q-17 0-29.3-12.2t-12.2-29.3z m551.3-147.9q0-18.1 11.7-29.6t29.8-11.4h234.9q18 0 29.5 11.7t11.5 29.3q0 17.1-11.7 28.3t-29.3 11.2h-234.9q-18.1 0-29.8-11.2t-11.7-28.3z"/></svg>