<svg height="1000" width="752.9" xmlns="http://www.w3.org/2000/svg"><path d="m1 483.4q0-102.1 50.5-188.7t137-137t188-50.3q76.1 0 145.5 29.8t119.6 80.1t80.1 119.9t29.8 146.2q0 76.2-29.8 145.8t-80.1 119.6t-119.6 79.6t-145.5 29.5q-76.7 0-146.3-29.8t-119.8-80.1t-79.9-119.3t-29.5-145.3z m82.5 0q0 118.2 86.9 206.1q86.4 86.4 206.1 86.4q79.1 0 146.4-39.3t107-106.7t39.5-146.5t-39.5-146.7t-107-107t-146.4-39.3t-146.5 39.3t-107 107t-39.5 146.7z m163.1 126l125-293q1-5.4 4.9-5.4q4.4 0 5.3 5.4l124.5 293q2 5.3-0.9 8.3t-8.3 0l-115.3-43.5q-4.8-2.4-10.2 0l-116.7 43.5q-4.9 2.9-7.8 0t-0.5-8.3z"/></svg>