<svg height="1000" width="752.9" xmlns="http://www.w3.org/2000/svg"><path d="m2.9 481.4q0-76.6 30.1-146.4t80.5-120.4t120.1-80.3t145.8-29.8t145.7 29.8t120.2 80.3t80.3 120.4t29.8 146.4t-29.8 146.5t-80.3 119.9t-120.2 79.8t-145.7 29.8q-76.7 0-146.5-29.8t-120.1-80.3t-80.1-120.1t-29.8-145.8z m83 0q0 120.2 87 207.1q86.4 86.4 206.5 86.4q79.6 0 147.2-39.5t107.2-107.2t39.5-146.8t-39.5-146.7t-107.2-107.2t-147.2-39.5q-79.1 0-146.7 39.5t-107.2 107.2t-39.6 146.7z m121.1 0q0-4.3 5.4-4.8l293.9-126q5.4-2.5 8.1 0.7t0.2 8.1l-43.4 117.2q-3.4 4.8 0 9.7l43.4 116.2q2.5 4.9-0.2 7.9t-8.1 0.4l-293.9-124.5q-5.4-0.5-5.4-4.9z"/></svg>