<svg height="1000" width="752.9" xmlns="http://www.w3.org/2000/svg"><path d="m14.9 577.1q-26.1-97.6 0.2-193.8q10.8-40 31-78.6t52.5-75.2t72.5-64.2t94.5-44.5t114.3-16.8q155.3 0 265.1 111.3q72.8 71.8 98.9 168.7t-0.2 193.1q-10.8 40.1-30.8 78.9t-52.5 75.4t-72.5 64.5t-94 44.7t-114 16.8q-157.2 0-266.1-110.8q-72.8-71.8-98.9-169.5z m71-96.6q0 121.6 86 208q85.4 85.4 208 85.4q79.1 0 146.5-39t106.7-106.7t39.3-147.7q0-79.1-39.3-146.8t-106.7-106.9t-146.5-39.3q-80.1 0-147.7 39.3t-107 106.9t-39.3 146.8z m170.4 114.7l122.1-295.4q0.5-4.9 4.9-4.9q4.9 0 6.8 4.9l50.8 112.8q1 4.4 7.8 6.8l112.3 50.8q5.4 2 5.4 6.9q0 4.3-5.4 5.8l-295.4 121.1q-4.9 2-7.3-0.5t-2-8.3z"/></svg>