<svg height="1000" width="752.9" xmlns="http://www.w3.org/2000/svg"><path d="m12.7 384.3q10.7-40.1 31.2-78.6t53-75.2t72.8-64.2t94.2-44.2t114-16.6q155.8 0 265.7 110.3q72.2 72.3 98.3 169t0.3 193.8q-10.8 40.1-31 78.6t-52.5 75.2t-72.3 64.2t-94.2 44.5t-114.3 16.8q-156.2 0-266.1-110.3q-72.2-71.8-98.6-169t-0.5-194.3z m71.8 97.1q0 121.6 85.9 207.6t207.5 85.9q59.6 0 113.8-23.2t93.5-62.5t62.5-93.5t23.2-114.3q0-79.5-39.3-146.9t-106.7-106.7t-147-39.3q-60 0-114.2 23.2t-93.5 62.5t-62.5 93.5t-23.2 113.7z m106.9 4q0-3.5 5.4-4.9l295.4-122.1q5.4-1 7.8 1.7t0.5 8.1l-121.1 294.9q-1 5.4-4.9 5.4q-5.4 0-7.8-5.4l-50.3-112.3q-4.4-6.9-7.3-7.3l-112.3-50.8q-5.4-2-5.4-7.3z"/></svg>