<svg height="1000" width="752.9" xmlns="http://www.w3.org/2000/svg"><path d="m4.2 577.6q-26.2-97.6 0.2-193.8q10.7-40 31-78.6t52.7-75.5t73-64.4t94.8-44.5t114.2-16.8q155.3 0 265.6 111.3q72.3 72.3 98.4 169t0.3 193.8q-10.8 40.1-31 78.6t-52.8 75.5t-72.5 64.4t-94 44.5t-114 16.8q-157.2 0-267.1-110.3q-72.7-72.3-98.8-170z m71.5-96.6q0 122 85.9 208t208.5 85.9q79.1 0 146.7-39.3t107-106.9t39.3-147.7q0-59.6-23.2-113.8t-62.5-93.5t-93.5-62.5t-113.8-23.2q-80.1 0-147.9 39.3t-107.2 106.9t-39.3 146.8z m107.4-3.5q0-4.8 4.9-6.8l112.8-50.8q4.9-2.4 7.3-7.3l50.3-111.8q4.4-5.9 7.8-5.9q3.9 0 5.4 5.9l121.1 295.4q1 5.4-1 7.3t-7.8 1l-295.9-121.1q-4.9-1.5-4.9-5.9z"/></svg>