<svg height="1000" width="752.9" xmlns="http://www.w3.org/2000/svg"><path d="m12.7 579.3q-25.9-96.9 0-193.6q10.7-40 31-78.3t52.5-74.7t72.3-64t94-44.2t114-16.6q154.8 0 264.6 109.9q72.3 71.8 98.2 168.4t0 193.4q-10.8 40-30.8 78.4t-52.2 74.9t-72.3 64.2t-93.8 44.2t-113.7 16.6q-155.8 0-265.7-109.9q-72.2-71.7-98.1-168.7z m70.8-96.9q0 121.6 85.9 207.1q85.5 85.9 207.1 85.9q79.1 0 146.2-39.3t106.5-106.7t39.3-147q0-79.1-39.3-146.2t-106.5-106.5t-146.2-39.3q-79.6 0-147 39.3t-106.7 106.5t-39.3 146.2z m169.9-112.8q-1-5.3 1.7-8.3t7.6-0.9l294.4 121.5q5.4 1 5.4 4.9q0 4.4-5.4 6.9l-112.3 50.7q-5.3 2-7.3 7.4l-50.8 112.3q-2.4 5.3-6.8 5.3q-3.9 0-4.9-5.3z"/></svg>